<svg width="299" height="400" viewBox="0 0 299 400" fill="none" xmlns="http://www.w3.org/2000/svg">
<g opacity="0.8">
<path d="M-43.8052 56.4024C30.7605 60.517 87.5356 119.016 83.0273 187.086L-51.967 179.637L-43.8052 56.4024Z" fill="#CC9509"/>
<path d="M74.6875 310.55C0.121867 306.435 -56.6533 247.936 -52.145 179.866L82.8493 187.315L74.6875 310.55Z" fill="#F0D07D"/>
<path d="M207.364 196.339C207.603 196.582 207.926 196.714 208.257 196.732C208.588 196.751 208.901 196.653 209.169 196.462L210.435 195.478C210.785 195.199 210.914 194.794 210.813 194.399L208.115 194.25L207.469 194.742C206.957 195.149 206.909 195.879 207.364 196.339Z" fill="#F6C002"/>
<path d="M206.457 210.035C206.696 210.277 207.02 210.41 207.35 210.428C207.681 210.446 207.994 210.349 208.262 210.158L209.528 209.174C210.066 208.768 210.114 208.038 209.635 207.553C209.182 207.07 208.368 207.025 207.83 207.431L206.564 208.415C206.05 208.844 206.002 209.575 206.457 210.035Z" fill="#F6C002"/>
<path d="M213.688 204.592C213.248 205.072 213.327 205.809 213.862 206.205L215.08 207.097C215.3 207.247 215.549 207.352 215.803 207.366C216.185 207.387 216.603 207.25 216.853 206.943C217.293 206.463 217.214 205.726 216.679 205.33L215.461 204.438C214.952 204.02 214.156 204.091 213.688 204.592Z" fill="#F6C002"/>
<path d="M214.829 200.485C215.147 200.686 215.577 200.756 215.969 200.617C216.622 200.401 216.971 199.756 216.755 199.171L216.229 197.859C215.986 197.273 215.267 196.959 214.615 197.152C213.962 197.368 213.613 198.013 213.83 198.598L214.356 199.91C214.441 200.166 214.607 200.359 214.829 200.485Z" fill="#F6C002"/>
<path d="M209.507 204.476C209.609 204.482 209.71 204.487 209.788 204.469C210.484 204.37 210.958 203.777 210.846 203.152L210.561 201.67C210.449 201.046 209.788 200.62 209.092 200.719C208.395 200.818 207.922 201.41 208.034 202.035L208.319 203.517C208.435 204.073 208.947 204.445 209.507 204.476Z" fill="#F6C002"/>
<path d="M212.801 224.544C212.148 224.76 211.799 225.405 212.016 225.989L212.367 226.856C212.674 226.072 212.982 225.287 213.24 224.476C213.087 224.468 212.958 224.484 212.801 224.544Z" fill="#F6C002"/>
<path d="M205.55 223.731C205.789 223.973 206.112 224.106 206.443 224.124C206.774 224.142 207.087 224.045 207.355 223.854L208.621 222.87C209.158 222.464 209.207 221.733 208.728 221.249C208.275 220.766 207.46 220.721 206.923 221.126L205.657 222.11C205.143 222.54 205.095 223.271 205.55 223.731Z" fill="#F6C002"/>
<path d="M212.781 218.288C212.341 218.768 212.419 219.505 212.955 219.901L214.173 220.793C214.246 220.843 214.348 220.849 214.423 220.876C214.678 220.111 214.909 219.322 215.139 218.556L214.579 218.135C214.045 217.716 213.248 217.787 212.781 218.288Z" fill="#F6C002"/>
<path d="M213.921 214.181C214.24 214.382 214.67 214.452 215.062 214.313C215.715 214.097 216.064 213.452 215.847 212.867L215.321 211.555C215.079 210.969 214.359 210.654 213.708 210.848C213.055 211.064 212.706 211.709 212.923 212.293L213.449 213.605C213.534 213.862 213.7 214.055 213.921 214.181Z" fill="#F6C002"/>
<path d="M208.6 218.172C208.702 218.178 208.804 218.183 208.882 218.165C209.578 218.065 210.051 217.473 209.939 216.848L209.654 215.366C209.542 214.742 208.881 214.316 208.185 214.415C207.489 214.514 207.015 215.106 207.127 215.731L207.412 217.213C207.528 217.769 208.04 218.141 208.6 218.172Z" fill="#F6C002"/>
<path d="M206.448 237.549L207.714 236.565C208.252 236.16 208.3 235.429 207.821 234.945C207.368 234.461 206.554 234.417 206.016 234.822L204.75 235.806C204.213 236.212 204.164 236.942 204.643 237.427C204.882 237.669 205.206 237.802 205.536 237.82C205.842 237.837 206.18 237.741 206.448 237.549Z" fill="#F6C002"/>
<path d="M208.747 229.062C208.635 228.437 207.974 228.012 207.278 228.111C206.581 228.21 206.108 228.802 206.22 229.427L206.505 230.909C206.597 231.441 207.108 231.836 207.693 231.868C207.795 231.873 207.896 231.879 207.974 231.86C208.67 231.761 209.144 231.169 209.032 230.544L208.747 229.062Z" fill="#F6C002"/>
<path d="M181.916 194.935C182.155 195.177 182.479 195.31 182.809 195.328C183.14 195.346 183.453 195.249 183.721 195.058L184.987 194.074C185.337 193.795 185.466 193.39 185.365 192.995L182.667 192.846L182.022 193.337C181.509 193.744 181.461 194.475 181.916 194.935Z" fill="#F6C002"/>
<path d="M195.789 194.486L196.074 195.968C196.166 196.5 196.677 196.895 197.262 196.927C197.364 196.933 197.466 196.938 197.543 196.92C198.24 196.821 198.713 196.228 198.601 195.604L198.316 194.122C198.276 193.959 198.209 193.818 198.14 193.7L196.104 193.587C195.858 193.826 195.71 194.138 195.789 194.486Z" fill="#F6C002"/>
<path d="M201.651 206.631C201.97 206.832 202.399 206.902 202.792 206.763C203.444 206.547 203.794 205.902 203.577 205.317L203.051 204.005C202.809 203.419 202.089 203.105 201.437 203.298C200.785 203.514 200.435 204.159 200.652 204.744L201.178 206.056C201.263 206.312 201.429 206.505 201.651 206.631Z" fill="#F6C002"/>
<path d="M181.009 208.631C181.248 208.873 181.572 209.006 181.903 209.024C182.233 209.042 182.546 208.945 182.814 208.753L184.08 207.769C184.618 207.364 184.666 206.633 184.187 206.149C183.734 205.665 182.92 205.621 182.382 206.026L181.116 207.01C180.603 207.44 180.554 208.17 181.009 208.631Z" fill="#F6C002"/>
<path d="M202.811 199.525C203.031 199.674 203.279 199.78 203.534 199.794C203.915 199.815 204.333 199.677 204.583 199.37C205.024 198.891 204.945 198.153 204.409 197.757L203.191 196.865C202.656 196.469 201.834 196.538 201.393 197.018C200.953 197.498 201.032 198.235 201.567 198.631L202.811 199.525Z" fill="#F6C002"/>
<path d="M190.038 203.035C189.502 202.639 188.68 202.708 188.24 203.188C187.8 203.668 187.879 204.405 188.414 204.801L189.632 205.693C189.852 205.843 190.101 205.948 190.355 205.962C190.737 205.983 191.155 205.846 191.405 205.539C191.845 205.059 191.766 204.322 191.231 203.926L190.038 203.035Z" fill="#F6C002"/>
<path d="M189.38 199.081C189.699 199.282 190.129 199.352 190.521 199.213C191.174 198.997 191.523 198.352 191.306 197.767L190.78 196.455C190.538 195.869 189.818 195.554 189.167 195.748C188.514 195.964 188.165 196.609 188.382 197.193L188.908 198.505C188.993 198.762 189.159 198.955 189.38 199.081Z" fill="#F6C002"/>
<path d="M195.585 199.882L194.319 200.866C193.781 201.272 193.733 202.002 194.212 202.487C194.451 202.729 194.774 202.861 195.105 202.88C195.436 202.898 195.749 202.801 196.017 202.609L197.283 201.625C197.82 201.22 197.869 200.489 197.39 200.004C196.911 199.52 196.097 199.475 195.585 199.882Z" fill="#F6C002"/>
<path d="M195.914 206.864C195.218 206.964 194.744 207.556 194.856 208.181L195.141 209.663C195.234 210.195 195.744 210.589 196.329 210.622C196.431 210.627 196.533 210.633 196.611 210.614C197.307 210.515 197.78 209.923 197.668 209.298L197.383 207.816C197.271 207.191 196.61 206.765 195.914 206.864Z" fill="#F6C002"/>
<path d="M184.059 203.072C184.161 203.077 184.263 203.083 184.34 203.064C185.037 202.965 185.51 202.373 185.398 201.748L185.113 200.266C185.001 199.641 184.34 199.215 183.644 199.314C182.948 199.413 182.474 200.006 182.586 200.631L182.871 202.113C182.987 202.669 183.499 203.041 184.059 203.072Z" fill="#F6C002"/>
<path d="M200.744 220.327C201.062 220.528 201.492 220.598 201.884 220.459C202.537 220.243 202.886 219.598 202.67 219.013L202.144 217.701C201.901 217.115 201.182 216.8 200.53 216.994C199.877 217.21 199.528 217.855 199.745 218.439L200.271 219.751C200.356 220.008 200.522 220.201 200.744 220.327Z" fill="#F6C002"/>
<path d="M180.102 222.327C180.341 222.569 180.665 222.701 180.995 222.72C181.326 222.738 181.639 222.641 181.907 222.449L183.173 221.465C183.71 221.06 183.759 220.329 183.28 219.845C182.827 219.361 182.012 219.316 181.475 219.722L180.209 220.706C179.695 221.136 179.647 221.866 180.102 222.327Z" fill="#F6C002"/>
<path d="M201.904 213.221C202.124 213.37 202.373 213.476 202.627 213.49C203.009 213.511 203.427 213.373 203.677 213.066C204.117 212.587 204.038 211.849 203.503 211.453L202.285 210.561C201.749 210.165 200.927 210.234 200.487 210.714C200.046 211.194 200.125 211.931 200.661 212.327L201.904 213.221Z" fill="#F6C002"/>
<path d="M189.131 216.731C188.595 216.335 187.773 216.404 187.333 216.884C186.892 217.363 186.971 218.101 187.507 218.497L188.725 219.389C188.945 219.539 189.193 219.644 189.448 219.658C189.829 219.679 190.247 219.542 190.498 219.235C190.938 218.755 190.859 218.018 190.323 217.622L189.131 216.731Z" fill="#F6C002"/>
<path d="M188.473 212.777C188.792 212.978 189.221 213.048 189.614 212.909C190.267 212.693 190.616 212.048 190.399 211.463L189.873 210.151C189.631 209.565 188.911 209.25 188.26 209.444C187.607 209.66 187.258 210.305 187.474 210.889L188 212.201C188.086 212.458 188.252 212.65 188.473 212.777Z" fill="#F6C002"/>
<path d="M194.678 213.578L193.412 214.562C192.875 214.967 192.826 215.698 193.305 216.182C193.544 216.425 193.868 216.557 194.198 216.575C194.529 216.594 194.842 216.496 195.11 216.305L196.376 215.321C196.914 214.915 196.962 214.185 196.483 213.7C196.005 213.216 195.19 213.171 194.678 213.578Z" fill="#F6C002"/>
<path d="M195.007 220.56C194.311 220.659 193.837 221.252 193.949 221.877L194.234 223.359C194.327 223.891 194.837 224.285 195.422 224.318C195.524 224.323 195.626 224.329 195.704 224.31C196.4 224.211 196.873 223.619 196.762 222.994L196.477 221.512C196.365 220.887 195.703 220.461 195.007 220.56Z" fill="#F6C002"/>
<path d="M183.152 216.768C183.254 216.773 183.355 216.779 183.433 216.76C184.129 216.661 184.603 216.069 184.491 215.444L184.206 213.962C184.094 213.337 183.433 212.911 182.737 213.01C182.04 213.109 181.567 213.702 181.679 214.327L181.964 215.809C182.08 216.365 182.592 216.737 183.152 216.768Z" fill="#F6C002"/>
<path d="M199.837 234.023C200.156 234.224 200.585 234.293 200.978 234.155C201.63 233.939 201.98 233.293 201.763 232.709L201.237 231.397C200.995 230.811 200.275 230.496 199.624 230.689C198.971 230.905 198.621 231.55 198.838 232.135L199.364 233.447C199.449 233.704 199.615 233.896 199.837 234.023Z" fill="#F6C002"/>
<path d="M179.195 236.023C179.434 236.265 179.757 236.397 180.088 236.416C180.419 236.434 180.732 236.337 181 236.145L182.266 235.161C182.803 234.756 182.852 234.025 182.373 233.54C181.92 233.057 181.105 233.012 180.568 233.418L179.302 234.402C178.788 234.832 178.74 235.562 179.195 236.023Z" fill="#F6C002"/>
<path d="M200.997 226.916C201.217 227.066 201.465 227.171 201.72 227.185C202.101 227.206 202.519 227.069 202.77 226.762C203.21 226.283 203.131 225.545 202.595 225.149L201.377 224.257C200.842 223.861 200.02 223.93 199.579 224.41C199.139 224.889 199.218 225.627 199.753 226.023L200.997 226.916Z" fill="#F6C002"/>
<path d="M188.224 230.427C187.688 230.031 186.866 230.1 186.426 230.58C185.985 231.059 186.064 231.797 186.6 232.193L187.818 233.085C188.038 233.234 188.286 233.34 188.541 233.354C188.922 233.375 189.34 233.238 189.59 232.931C190.031 232.451 189.952 231.714 189.416 231.317L188.224 230.427Z" fill="#F6C002"/>
<path d="M187.566 226.473C187.885 226.674 188.314 226.744 188.707 226.605C189.359 226.389 189.709 225.744 189.492 225.159L188.966 223.847C188.724 223.261 188.004 222.946 187.352 223.139C186.7 223.355 186.35 224.001 186.567 224.585L187.093 225.897C187.178 226.154 187.344 226.346 187.566 226.473Z" fill="#F6C002"/>
<path d="M193.771 227.273L192.505 228.257C191.967 228.663 191.919 229.394 192.398 229.878C192.637 230.12 192.96 230.253 193.291 230.271C193.622 230.289 193.935 230.192 194.203 230.001L195.469 229.017C196.006 228.611 196.055 227.881 195.576 227.396C195.097 226.911 194.283 226.866 193.771 227.273Z" fill="#F6C002"/>
<path d="M194.1 234.256C193.404 234.355 192.93 234.948 193.042 235.572L193.327 237.054C193.42 237.586 193.93 237.981 194.515 238.013C194.617 238.019 194.719 238.025 194.797 238.006C195.493 237.907 195.966 237.315 195.854 236.69L195.569 235.208C195.457 234.583 194.796 234.157 194.1 234.256Z" fill="#F6C002"/>
<path d="M182.245 230.463C182.346 230.469 182.448 230.475 182.526 230.456C183.222 230.357 183.696 229.765 183.584 229.14L183.299 227.658C183.187 227.033 182.526 226.607 181.829 226.706C181.133 226.805 180.66 227.398 180.772 228.022L181.057 229.504C181.173 230.061 181.685 230.433 182.245 230.463Z" fill="#F6C002"/>
<path d="M197.789 251.826C197.349 252.305 197.428 253.043 197.963 253.439L198.061 253.513C198.512 252.874 198.963 252.234 199.414 251.595C198.897 251.291 198.203 251.367 197.789 251.826Z" fill="#F6C002"/>
<path d="M198.93 247.719C199.248 247.92 199.678 247.989 200.07 247.851C200.723 247.635 201.072 246.989 200.856 246.405L200.33 245.093C200.087 244.507 199.368 244.192 198.716 244.385C198.063 244.601 197.714 245.246 197.931 245.831L198.457 247.143C198.542 247.4 198.708 247.592 198.93 247.719Z" fill="#F6C002"/>
<path d="M185.539 250.531C184.886 250.747 184.537 251.392 184.753 251.977L185.279 253.289C185.366 253.523 185.532 253.715 185.754 253.842C186.072 254.043 186.502 254.112 186.894 253.974C187.547 253.758 187.896 253.112 187.68 252.528L187.153 251.216C186.911 250.63 186.191 250.315 185.539 250.531Z" fill="#F6C002"/>
<path d="M178.287 249.719C178.527 249.961 178.85 250.093 179.181 250.111C179.512 250.13 179.825 250.032 180.093 249.841L181.358 248.857C181.896 248.451 181.944 247.721 181.466 247.236C181.012 246.753 180.198 246.708 179.66 247.114L178.395 248.098C177.881 248.528 177.833 249.258 178.287 249.719Z" fill="#F6C002"/>
<path d="M200.09 240.612C200.31 240.762 200.559 240.867 200.813 240.881C201.195 240.902 201.613 240.765 201.863 240.458C202.303 239.978 202.224 239.241 201.689 238.845L200.471 237.953C199.935 237.557 199.113 237.626 198.673 238.105C198.232 238.585 198.311 239.323 198.847 239.719L200.09 240.612Z" fill="#F6C002"/>
<path d="M186.912 246.758C187.132 246.908 187.38 247.013 187.635 247.027C188.017 247.048 188.434 246.911 188.685 246.604C189.125 246.124 189.046 245.387 188.51 244.991L187.292 244.099C186.757 243.703 185.935 243.772 185.494 244.251C185.054 244.731 185.133 245.469 185.669 245.865L186.912 246.758Z" fill="#F6C002"/>
<path d="M186.659 240.169C186.978 240.37 187.407 240.439 187.8 240.301C188.453 240.085 188.802 239.44 188.585 238.855L188.059 237.543C187.817 236.957 187.097 236.642 186.446 236.835C185.793 237.051 185.444 237.696 185.66 238.281L186.186 239.593C186.272 239.85 186.438 240.042 186.659 240.169Z" fill="#F6C002"/>
<path d="M192.864 240.969L191.598 241.953C191.06 242.359 191.012 243.089 191.491 243.574C191.73 243.816 192.053 243.949 192.384 243.967C192.715 243.985 193.028 243.888 193.296 243.697L194.562 242.713C195.099 242.307 195.148 241.577 194.669 241.092C194.19 240.607 193.376 240.562 192.864 240.969Z" fill="#F6C002"/>
<path d="M193.193 247.952C192.496 248.051 192.023 248.644 192.135 249.268L192.42 250.75C192.512 251.282 193.023 251.677 193.608 251.709C193.71 251.715 193.811 251.721 193.889 251.702C194.585 251.603 195.059 251.011 194.947 250.386L194.662 248.904C194.55 248.279 193.889 247.853 193.193 247.952Z" fill="#F6C002"/>
<path d="M181.338 244.159C181.44 244.165 181.541 244.171 181.619 244.152C182.315 244.053 182.789 243.46 182.677 242.836L182.392 241.354C182.28 240.729 181.619 240.303 180.923 240.402C180.226 240.501 179.753 241.094 179.865 241.718L180.15 243.2C180.266 243.757 180.778 244.128 181.338 244.159Z" fill="#F6C002"/>
<path d="M178.779 260.811L177.513 261.795C176.976 262.201 176.927 262.931 177.406 263.416C177.646 263.658 177.969 263.79 178.3 263.809C178.63 263.827 178.943 263.73 179.211 263.538L180.477 262.554C181.015 262.149 181.063 261.418 180.584 260.934C180.106 260.449 179.291 260.404 178.779 260.811Z" fill="#F6C002"/>
<path d="M186.41 257.819C185.874 257.422 185.052 257.492 184.612 257.971C184.171 258.451 184.25 259.189 184.786 259.585L186.004 260.477C186.224 260.626 186.472 260.732 186.727 260.746C187.108 260.767 187.526 260.629 187.776 260.322C188.217 259.843 188.138 259.105 187.602 258.709L186.41 257.819Z" fill="#F6C002"/>
<path d="M191.451 257.662C191.782 257.68 192.095 257.583 192.363 257.391L193.629 256.407C194.167 256.002 194.215 255.271 193.736 254.787C193.283 254.303 192.469 254.258 191.931 254.664L190.665 255.648C190.128 256.054 190.079 256.784 190.558 257.269C190.797 257.511 191.121 257.643 191.451 257.662Z" fill="#F6C002"/>
<path d="M181.77 256.532L181.485 255.05C181.373 254.425 180.712 253.999 180.015 254.098C179.319 254.197 178.846 254.79 178.958 255.414L179.243 256.896C179.335 257.428 179.845 257.823 180.431 257.855C180.532 257.861 180.634 257.867 180.712 257.848C181.434 257.75 181.882 257.156 181.77 256.532Z" fill="#F6C002"/>
<path d="M177.872 274.507L176.606 275.491C176.148 275.855 176.059 276.423 176.36 276.898C177.36 276.06 178.335 275.22 179.312 274.357C178.841 274.148 178.276 274.186 177.872 274.507Z" fill="#F6C002"/>
<path d="M184.845 267.56C185.164 267.761 185.594 267.831 185.986 267.692C186.639 267.476 186.988 266.831 186.771 266.246L186.245 264.934C186.003 264.348 185.283 264.034 184.632 264.227C183.979 264.443 183.63 265.088 183.846 265.673L184.373 266.985C184.458 267.241 184.624 267.434 184.845 267.56Z" fill="#F6C002"/>
<path d="M178.361 270.594C178.453 271.126 178.963 271.52 179.549 271.553C179.651 271.558 179.752 271.564 179.83 271.545C180.526 271.446 181 270.854 180.888 270.229L180.603 268.747C180.491 268.122 179.83 267.696 179.134 267.795C178.437 267.894 177.964 268.487 178.076 269.112L178.361 270.594Z" fill="#F6C002"/>
<path d="M156.468 193.531C156.707 193.773 157.03 193.905 157.361 193.924C157.692 193.942 158.005 193.845 158.273 193.653L159.539 192.669C159.889 192.391 160.018 191.985 159.916 191.59L157.219 191.442L156.573 191.933C156.061 192.34 156.013 193.07 156.468 193.531Z" fill="#F6C002"/>
<path d="M170.341 193.082L170.626 194.564C170.718 195.096 171.228 195.491 171.814 195.523C171.915 195.529 172.017 195.534 172.095 195.516C172.791 195.417 173.265 194.824 173.153 194.2L172.868 192.718C172.828 192.555 172.76 192.414 172.692 192.295L170.656 192.183C170.41 192.422 170.262 192.734 170.341 193.082Z" fill="#F6C002"/>
<path d="M176.203 205.227C176.521 205.428 176.951 205.497 177.343 205.359C177.996 205.143 178.345 204.498 178.129 203.913L177.603 202.601C177.36 202.015 176.641 201.7 175.989 201.893C175.336 202.109 174.987 202.754 175.204 203.339L175.73 204.651C175.815 204.908 175.981 205.1 176.203 205.227Z" fill="#F6C002"/>
<path d="M155.56 207.227C155.8 207.469 156.123 207.601 156.454 207.62C156.785 207.638 157.098 207.541 157.366 207.349L158.631 206.365C159.169 205.96 159.217 205.229 158.739 204.745C158.285 204.261 157.471 204.216 156.933 204.622L155.668 205.606C155.154 206.036 155.106 206.766 155.56 207.227Z" fill="#F6C002"/>
<path d="M177.363 198.12C177.583 198.27 177.832 198.375 178.086 198.389C178.468 198.41 178.886 198.273 179.136 197.966C179.576 197.486 179.497 196.749 178.962 196.353L177.744 195.461C177.208 195.065 176.386 195.134 175.946 195.614C175.505 196.093 175.584 196.831 176.12 197.227L177.363 198.12Z" fill="#F6C002"/>
<path d="M164.589 201.631C164.054 201.235 163.232 201.304 162.791 201.784C162.351 202.263 162.43 203.001 162.965 203.397L164.183 204.289C164.403 204.439 164.652 204.544 164.906 204.558C165.288 204.579 165.706 204.442 165.956 204.135C166.396 203.655 166.318 202.918 165.782 202.521L164.589 201.631Z" fill="#F6C002"/>
<path d="M163.932 197.677C164.251 197.878 164.68 197.947 165.073 197.809C165.726 197.593 166.075 196.948 165.858 196.363L165.332 195.051C165.09 194.465 164.37 194.15 163.719 194.343C163.066 194.559 162.717 195.204 162.933 195.789L163.459 197.101C163.545 197.358 163.711 197.55 163.932 197.677Z" fill="#F6C002"/>
<path d="M170.137 198.478L168.871 199.462C168.333 199.867 168.285 200.598 168.764 201.082C169.003 201.325 169.326 201.457 169.657 201.475C169.988 201.493 170.301 201.396 170.569 201.205L171.834 200.221C172.372 199.815 172.421 199.085 171.942 198.6C171.463 198.115 170.649 198.071 170.137 198.478Z" fill="#F6C002"/>
<path d="M170.466 205.46C169.769 205.559 169.296 206.152 169.408 206.777L169.693 208.259C169.785 208.791 170.296 209.185 170.881 209.218C170.983 209.223 171.084 209.229 171.162 209.21C171.858 209.111 172.332 208.519 172.22 207.894L171.935 206.412C171.823 205.787 171.162 205.361 170.466 205.46Z" fill="#F6C002"/>
<path d="M158.611 201.668C158.713 201.673 158.814 201.679 158.892 201.66C159.588 201.561 160.062 200.969 159.95 200.344L159.665 198.862C159.553 198.237 158.892 197.811 158.196 197.91C157.499 198.009 157.026 198.602 157.138 199.227L157.423 200.709C157.539 201.265 158.051 201.637 158.611 201.668Z" fill="#F6C002"/>
<path d="M175.295 218.923C175.614 219.124 176.044 219.193 176.436 219.055C177.089 218.839 177.438 218.194 177.221 217.609L176.695 216.297C176.453 215.711 175.733 215.396 175.082 215.589C174.429 215.805 174.08 216.45 174.297 217.035L174.823 218.347C174.908 218.604 175.074 218.796 175.295 218.923Z" fill="#F6C002"/>
<path d="M154.654 220.923C154.893 221.165 155.216 221.297 155.547 221.316C155.878 221.334 156.191 221.237 156.459 221.045L157.725 220.061C158.262 219.655 158.311 218.925 157.832 218.44C157.379 217.957 156.564 217.912 156.027 218.318L154.761 219.302C154.247 219.732 154.199 220.462 154.654 220.923Z" fill="#F6C002"/>
<path d="M176.456 211.816C176.676 211.966 176.924 212.071 177.179 212.085C177.561 212.106 177.978 211.969 178.228 211.662C178.669 211.182 178.59 210.445 178.054 210.049L176.836 209.157C176.301 208.761 175.479 208.83 175.038 209.31C174.598 209.789 174.677 210.527 175.212 210.923L176.456 211.816Z" fill="#F6C002"/>
<path d="M163.683 215.327C163.147 214.931 162.325 215 161.885 215.48C161.444 215.959 161.523 216.697 162.059 217.093L163.277 217.985C163.497 218.134 163.745 218.24 164 218.254C164.381 218.275 164.799 218.138 165.049 217.831C165.49 217.351 165.411 216.613 164.875 216.217L163.683 215.327Z" fill="#F6C002"/>
<path d="M163.025 211.373C163.344 211.574 163.773 211.643 164.166 211.505C164.818 211.289 165.168 210.643 164.951 210.059L164.425 208.747C164.183 208.161 163.463 207.846 162.811 208.039C162.159 208.255 161.809 208.9 162.026 209.485L162.552 210.797C162.637 211.054 162.803 211.246 163.025 211.373Z" fill="#F6C002"/>
<path d="M169.229 212.173L167.964 213.157C167.426 213.563 167.378 214.294 167.856 214.778C168.096 215.02 168.419 215.153 168.75 215.171C169.081 215.189 169.394 215.092 169.662 214.901L170.927 213.917C171.465 213.511 171.513 212.781 171.035 212.296C170.556 211.811 169.742 211.766 169.229 212.173Z" fill="#F6C002"/>
<path d="M169.559 219.156C168.863 219.255 168.389 219.848 168.501 220.473L168.786 221.955C168.879 222.487 169.389 222.881 169.974 222.914C170.076 222.919 170.178 222.925 170.256 222.906C170.952 222.807 171.425 222.215 171.313 221.59L171.028 220.108C170.916 219.483 170.255 219.057 169.559 219.156Z" fill="#F6C002"/>
<path d="M157.704 215.363C157.805 215.369 157.907 215.375 157.985 215.356C158.681 215.257 159.155 214.665 159.043 214.04L158.758 212.558C158.646 211.933 157.985 211.507 157.288 211.606C156.592 211.705 156.119 212.298 156.231 212.922L156.516 214.404C156.632 214.961 157.144 215.333 157.704 215.363Z" fill="#F6C002"/>
<path d="M174.389 232.619C174.707 232.82 175.137 232.889 175.529 232.751C176.182 232.535 176.531 231.889 176.315 231.305L175.789 229.993C175.546 229.407 174.827 229.092 174.175 229.285C173.522 229.501 173.173 230.146 173.39 230.731L173.916 232.043C174.001 232.3 174.167 232.492 174.389 232.619Z" fill="#F6C002"/>
<path d="M153.746 234.619C153.986 234.861 154.309 234.993 154.64 235.011C154.971 235.03 155.284 234.932 155.552 234.741L156.817 233.757C157.355 233.351 157.403 232.621 156.925 232.136C156.471 231.653 155.657 231.608 155.119 232.014L153.854 232.998C153.34 233.428 153.292 234.158 153.746 234.619Z" fill="#F6C002"/>
<path d="M175.549 225.512C175.769 225.662 176.017 225.767 176.272 225.781C176.653 225.802 177.071 225.665 177.321 225.358C177.762 224.878 177.683 224.141 177.147 223.745L175.929 222.853C175.393 222.456 174.572 222.526 174.131 223.005C173.691 223.485 173.77 224.223 174.305 224.619L175.549 225.512Z" fill="#F6C002"/>
<path d="M162.775 229.023C162.24 228.627 161.418 228.696 160.977 229.175C160.537 229.655 160.616 230.393 161.151 230.789L162.369 231.681C162.589 231.83 162.838 231.936 163.092 231.95C163.474 231.971 163.892 231.833 164.142 231.527C164.582 231.047 164.504 230.309 163.968 229.913L162.775 229.023Z" fill="#F6C002"/>
<path d="M162.118 225.069C162.437 225.27 162.866 225.339 163.259 225.2C163.912 224.984 164.261 224.339 164.044 223.755L163.518 222.443C163.276 221.857 162.556 221.542 161.905 221.735C161.252 221.951 160.903 222.596 161.119 223.181L161.645 224.493C161.731 224.75 161.897 224.942 162.118 225.069Z" fill="#F6C002"/>
<path d="M168.323 225.869L167.057 226.853C166.519 227.259 166.471 227.989 166.95 228.474C167.189 228.716 167.512 228.849 167.843 228.867C168.174 228.885 168.487 228.788 168.755 228.597L170.021 227.613C170.558 227.207 170.607 226.476 170.128 225.992C169.649 225.507 168.835 225.462 168.323 225.869Z" fill="#F6C002"/>
<path d="M168.652 232.852C167.955 232.951 167.482 233.544 167.594 234.168L167.879 235.65C167.971 236.182 168.482 236.577 169.067 236.609C169.169 236.615 169.27 236.621 169.348 236.602C170.044 236.503 170.518 235.911 170.406 235.286L170.121 233.804C170.009 233.179 169.348 232.753 168.652 232.852Z" fill="#F6C002"/>
<path d="M156.796 229.059C156.898 229.065 157 229.071 157.078 229.052C157.774 228.953 158.247 228.36 158.136 227.736L157.851 226.254C157.739 225.629 157.077 225.203 156.381 225.302C155.685 225.401 155.212 225.994 155.323 226.618L155.608 228.1C155.725 228.657 156.236 229.028 156.796 229.059Z" fill="#F6C002"/>
<path d="M174.139 250.269C173.603 249.872 172.782 249.942 172.341 250.421C171.901 250.901 171.98 251.638 172.515 252.035L173.733 252.927C173.953 253.076 174.202 253.182 174.456 253.196C174.838 253.217 175.256 253.079 175.506 252.772C175.946 252.293 175.867 251.555 175.332 251.159L174.139 250.269Z" fill="#F6C002"/>
<path d="M173.481 246.315C173.8 246.516 174.23 246.585 174.622 246.446C175.275 246.23 175.624 245.585 175.407 245.001L174.881 243.689C174.639 243.103 173.919 242.788 173.268 242.981C172.615 243.197 172.266 243.842 172.483 244.427L173.009 245.739C173.094 245.996 173.26 246.188 173.481 246.315Z" fill="#F6C002"/>
<path d="M154.238 245.711L152.972 246.695C152.434 247.101 152.386 247.831 152.865 248.316C153.104 248.558 153.427 248.69 153.758 248.709C154.089 248.727 154.402 248.63 154.67 248.438L155.936 247.454C156.473 247.049 156.522 246.318 156.043 245.834C155.564 245.349 154.75 245.304 154.238 245.711Z" fill="#F6C002"/>
<path d="M174.641 239.208C174.861 239.358 175.11 239.463 175.364 239.477C175.746 239.498 176.164 239.361 176.414 239.054C176.854 238.574 176.776 237.837 176.24 237.44L175.022 236.549C174.486 236.152 173.664 236.222 173.224 236.701C172.784 237.181 172.862 237.919 173.398 238.315L174.641 239.208Z" fill="#F6C002"/>
<path d="M161.868 242.719C161.332 242.322 160.511 242.392 160.07 242.871C159.63 243.351 159.709 244.088 160.244 244.485L161.462 245.377C161.682 245.526 161.931 245.632 162.185 245.646C162.567 245.667 162.985 245.529 163.235 245.222C163.675 244.743 163.596 244.005 163.061 243.609L161.868 242.719Z" fill="#F6C002"/>
<path d="M161.211 238.765C161.53 238.966 161.959 239.035 162.352 238.896C163.004 238.68 163.354 238.035 163.137 237.451L162.611 236.139C162.369 235.552 161.649 235.238 160.998 235.431C160.345 235.647 159.995 236.292 160.212 236.877L160.738 238.189C160.823 238.445 160.989 238.638 161.211 238.765Z" fill="#F6C002"/>
<path d="M167.415 239.565L166.15 240.549C165.612 240.955 165.564 241.685 166.042 242.17C166.282 242.412 166.605 242.545 166.936 242.563C167.267 242.581 167.58 242.484 167.848 242.292L169.113 241.308C169.651 240.903 169.699 240.172 169.221 239.688C168.742 239.203 167.928 239.158 167.415 239.565Z" fill="#F6C002"/>
<path d="M167.744 246.548C167.048 246.647 166.575 247.24 166.687 247.864L166.972 249.346C167.064 249.878 167.574 250.273 168.16 250.305C168.261 250.311 168.363 250.317 168.441 250.298C169.137 250.199 169.611 249.606 169.499 248.982L169.214 247.5C169.102 246.875 168.441 246.449 167.744 246.548Z" fill="#F6C002"/>
<path d="M157.229 241.432L156.944 239.95C156.832 239.325 156.171 238.899 155.474 238.998C154.778 239.097 154.305 239.689 154.417 240.314L154.702 241.796C154.794 242.328 155.304 242.723 155.89 242.755C155.991 242.761 156.093 242.766 156.171 242.748C156.893 242.65 157.341 242.056 157.229 241.432Z" fill="#F6C002"/>
<path d="M173.232 263.964C172.696 263.568 171.874 263.637 171.434 264.117C170.993 264.597 171.072 265.334 171.608 265.73L172.826 266.622C173.046 266.772 173.294 266.877 173.549 266.891C173.931 266.912 174.348 266.775 174.599 266.468C175.039 265.989 174.96 265.251 174.424 264.855L173.232 263.964Z" fill="#F6C002"/>
<path d="M172.361 256.677C171.708 256.893 171.359 257.538 171.576 258.123L172.102 259.435C172.188 259.668 172.354 259.861 172.576 259.988C172.895 260.189 173.324 260.258 173.716 260.119C174.369 259.903 174.719 259.258 174.502 258.674L173.976 257.362C173.734 256.775 173.014 256.461 172.361 256.677Z" fill="#F6C002"/>
<path d="M153.331 259.407L152.065 260.391C151.528 260.797 151.479 261.527 151.958 262.012C152.197 262.254 152.521 262.386 152.851 262.405C153.182 262.423 153.495 262.326 153.763 262.134L155.029 261.15C155.566 260.745 155.615 260.014 155.136 259.529C154.657 259.045 153.843 259 153.331 259.407Z" fill="#F6C002"/>
<path d="M160.557 259.05C160.777 259.199 161.025 259.305 161.28 259.319C161.662 259.34 162.079 259.202 162.33 258.895C162.77 258.416 162.691 257.678 162.155 257.282L160.937 256.39C160.402 255.994 159.58 256.063 159.139 256.543C158.699 257.023 158.778 257.76 159.314 258.156L160.557 259.05Z" fill="#F6C002"/>
<path d="M160.304 252.461C160.622 252.661 161.052 252.731 161.444 252.592C162.097 252.376 162.446 251.731 162.23 251.146L161.704 249.834C161.461 249.248 160.742 248.934 160.09 249.127C159.437 249.343 159.088 249.988 159.305 250.573L159.831 251.885C159.916 252.141 160.082 252.334 160.304 252.461Z" fill="#F6C002"/>
<path d="M168.183 254.98C168.72 254.574 168.769 253.844 168.29 253.359C167.837 252.876 167.022 252.831 166.485 253.237L165.219 254.221C164.681 254.626 164.633 255.357 165.112 255.842C165.351 256.084 165.674 256.216 166.005 256.234C166.336 256.253 166.649 256.155 166.917 255.964L168.183 254.98Z" fill="#F6C002"/>
<path d="M166.09 263.043C166.183 263.575 166.693 263.97 167.278 264.002C167.38 264.008 167.482 264.014 167.56 263.995C168.256 263.896 168.729 263.304 168.617 262.679L168.332 261.197C168.221 260.572 167.559 260.146 166.863 260.245C166.167 260.344 165.693 260.937 165.805 261.561L166.09 263.043Z" fill="#F6C002"/>
<path d="M156.322 255.128L156.037 253.646C155.925 253.021 155.263 252.595 154.567 252.694C153.871 252.793 153.398 253.385 153.509 254.01L153.794 255.492C153.887 256.024 154.397 256.419 154.982 256.451C155.084 256.457 155.186 256.462 155.264 256.444C155.985 256.346 156.433 255.752 156.322 255.128Z" fill="#F6C002"/>
<path d="M173.874 278.96C173.806 278.819 173.688 278.675 173.543 278.552L172.325 277.66C171.79 277.264 170.968 277.333 170.527 277.813C170.087 278.293 170.166 279.03 170.701 279.426L171.919 280.318C171.969 280.344 171.994 280.345 172.043 280.371C172.664 279.878 173.281 279.431 173.874 278.96Z" fill="#F6C002"/>
<path d="M171.454 270.373C170.801 270.589 170.452 271.234 170.669 271.818L171.195 273.13C171.282 273.364 171.448 273.557 171.669 273.684C171.988 273.884 172.417 273.954 172.81 273.815C173.463 273.599 173.812 272.954 173.595 272.369L173.069 271.057C172.827 270.471 172.107 270.157 171.454 270.373Z" fill="#F6C002"/>
<path d="M152.424 273.103L151.158 274.087C150.62 274.492 150.572 275.223 151.051 275.708C151.29 275.95 151.613 276.082 151.944 276.1C152.275 276.119 152.588 276.021 152.856 275.83L154.122 274.846C154.659 274.44 154.708 273.71 154.229 273.225C153.75 272.741 152.936 272.696 152.424 273.103Z" fill="#F6C002"/>
<path d="M159.65 272.745C159.87 272.895 160.118 273 160.373 273.014C160.754 273.035 161.172 272.898 161.422 272.591C161.863 272.112 161.784 271.374 161.248 270.978L160.03 270.086C159.495 269.69 158.673 269.759 158.232 270.239C157.792 270.718 157.871 271.456 158.406 271.852L159.65 272.745Z" fill="#F6C002"/>
<path d="M159.396 266.156C159.715 266.357 160.145 266.427 160.537 266.288C161.19 266.072 161.539 265.427 161.322 264.842L160.796 263.53C160.554 262.944 159.834 262.63 159.183 262.823C158.53 263.039 158.181 263.684 158.398 264.269L158.924 265.581C159.009 265.837 159.175 266.03 159.396 266.156Z" fill="#F6C002"/>
<path d="M167.275 268.676C167.813 268.27 167.861 267.54 167.383 267.055C166.929 266.572 166.115 266.527 165.577 266.933L164.312 267.917C163.774 268.322 163.726 269.053 164.204 269.537C164.444 269.78 164.767 269.912 165.098 269.93C165.429 269.949 165.742 269.851 166.01 269.66L167.275 268.676Z" fill="#F6C002"/>
<path d="M165.183 276.739C165.276 277.271 165.786 277.666 166.371 277.698C166.473 277.704 166.575 277.71 166.652 277.691C167.349 277.592 167.822 276.999 167.71 276.375L167.425 274.893C167.313 274.268 166.652 273.842 165.956 273.941C165.26 274.04 164.786 274.633 164.898 275.257L165.183 276.739Z" fill="#F6C002"/>
<path d="M155.414 268.823L155.129 267.341C155.018 266.717 154.356 266.291 153.66 266.39C152.964 266.489 152.49 267.081 152.602 267.706L152.887 269.188C152.98 269.72 153.49 270.115 154.075 270.147C154.177 270.153 154.279 270.158 154.357 270.14C155.078 270.042 155.526 269.448 155.414 268.823Z" fill="#F6C002"/>
<path d="M157.368 290.214C157.186 290.273 157.026 290.378 156.891 290.485C157.051 290.38 157.235 290.298 157.395 290.193C157.394 290.216 157.368 290.214 157.368 290.214Z" fill="#F6C002"/>
<path d="M151.923 289.524L153.189 288.54C153.727 288.135 153.775 287.404 153.296 286.92C152.843 286.437 152.029 286.392 151.491 286.797L150.225 287.781C149.688 288.187 149.639 288.917 150.118 289.402C150.357 289.644 150.681 289.777 151.012 289.795C151.317 289.812 151.655 289.716 151.923 289.524Z" fill="#F6C002"/>
<path d="M158.743 286.441C158.963 286.591 159.211 286.696 159.466 286.71C159.848 286.731 160.265 286.594 160.516 286.287C160.956 285.807 160.877 285.07 160.341 284.674L159.123 283.782C158.588 283.386 157.766 283.455 157.325 283.935C156.885 284.414 156.964 285.152 157.5 285.548L158.743 286.441Z" fill="#F6C002"/>
<path d="M158.49 279.852C158.808 280.053 159.238 280.123 159.63 279.984C160.283 279.768 160.632 279.123 160.416 278.538L159.89 277.226C159.647 276.64 158.928 276.325 158.276 276.519C157.623 276.735 157.274 277.38 157.491 277.964L158.017 279.276C158.102 279.533 158.268 279.726 158.49 279.852Z" fill="#F6C002"/>
<path d="M164.189 283.649C164.52 283.667 164.833 283.57 165.101 283.379L166.367 282.395C166.904 281.989 166.953 281.259 166.474 280.774C166.021 280.291 165.206 280.246 164.669 280.651L163.403 281.635C162.865 282.041 162.817 282.772 163.296 283.256C163.535 283.498 163.858 283.631 164.189 283.649Z" fill="#F6C002"/>
<path d="M154.223 281.037C154.111 280.412 153.449 279.986 152.753 280.085C152.057 280.184 151.584 280.777 151.695 281.402L151.98 282.884C152.073 283.416 152.583 283.81 153.168 283.843C153.27 283.848 153.372 283.854 153.45 283.835C154.146 283.736 154.619 283.144 154.508 282.519L154.223 281.037Z" fill="#F6C002"/>
<path d="M131.019 192.127C131.259 192.369 131.582 192.501 131.913 192.52C132.244 192.538 132.557 192.441 132.825 192.249L134.09 191.265C134.441 190.987 134.57 190.581 134.468 190.186L131.771 190.037L131.125 190.529C130.613 190.936 130.565 191.666 131.019 192.127Z" fill="#F6C002"/>
<path d="M144.892 191.678L145.177 193.16C145.27 193.692 145.78 194.086 146.365 194.119C146.467 194.124 146.569 194.13 146.647 194.111C147.343 194.012 147.816 193.42 147.705 192.795L147.42 191.313C147.379 191.151 147.312 191.009 147.243 190.891L145.207 190.779C144.962 191.017 144.813 191.33 144.892 191.678Z" fill="#F6C002"/>
<path d="M150.754 203.823C151.073 204.024 151.503 204.093 151.895 203.954C152.548 203.738 152.897 203.093 152.68 202.509L152.154 201.197C151.912 200.61 151.192 200.296 150.541 200.489C149.888 200.705 149.539 201.35 149.756 201.935L150.282 203.247C150.367 203.503 150.533 203.696 150.754 203.823Z" fill="#F6C002"/>
<path d="M130.113 205.822C130.352 206.065 130.675 206.197 131.006 206.215C131.337 206.234 131.65 206.136 131.918 205.945L133.184 204.961C133.721 204.555 133.77 203.825 133.291 203.34C132.838 202.857 132.023 202.812 131.486 203.218L130.22 204.202C129.706 204.632 129.658 205.362 130.113 205.822Z" fill="#F6C002"/>
<path d="M151.915 196.716C152.135 196.865 152.383 196.971 152.638 196.985C153.02 197.006 153.437 196.869 153.687 196.562C154.128 196.082 154.049 195.345 153.513 194.948L152.295 194.056C151.76 193.66 150.938 193.73 150.497 194.209C150.057 194.689 150.136 195.426 150.671 195.823L151.915 196.716Z" fill="#F6C002"/>
<path d="M139.142 200.227C138.606 199.83 137.784 199.9 137.344 200.379C136.903 200.859 136.982 201.596 137.518 201.993L138.736 202.885C138.956 203.034 139.204 203.14 139.459 203.154C139.84 203.175 140.258 203.037 140.508 202.73C140.949 202.251 140.87 201.513 140.334 201.117L139.142 200.227Z" fill="#F6C002"/>
<path d="M138.484 196.273C138.803 196.474 139.232 196.543 139.624 196.405C140.277 196.189 140.627 195.543 140.41 194.959L139.884 193.647C139.642 193.061 138.922 192.746 138.27 192.939C137.618 193.155 137.268 193.8 137.485 194.385L138.011 195.697C138.096 195.954 138.262 196.146 138.484 196.273Z" fill="#F6C002"/>
<path d="M144.689 197.073L143.423 198.057C142.885 198.463 142.837 199.193 143.316 199.678C143.555 199.92 143.878 200.053 144.209 200.071C144.54 200.089 144.853 199.992 145.121 199.8L146.387 198.816C146.924 198.411 146.973 197.68 146.494 197.196C146.015 196.711 145.201 196.666 144.689 197.073Z" fill="#F6C002"/>
<path d="M145.018 204.056C144.322 204.155 143.848 204.747 143.96 205.372L144.245 206.854C144.338 207.386 144.848 207.781 145.433 207.813C145.535 207.819 145.637 207.824 145.715 207.806C146.411 207.707 146.884 207.114 146.772 206.49L146.487 205.008C146.375 204.383 145.714 203.957 145.018 204.056Z" fill="#F6C002"/>
<path d="M133.163 200.263C133.264 200.269 133.366 200.274 133.444 200.256C134.14 200.157 134.614 199.564 134.502 198.94L134.217 197.458C134.105 196.833 133.444 196.407 132.747 196.506C132.051 196.605 131.578 197.197 131.69 197.822L131.975 199.304C132.091 199.86 132.603 200.232 133.163 200.263Z" fill="#F6C002"/>
<path d="M149.847 217.519C150.166 217.719 150.595 217.789 150.988 217.65C151.641 217.434 151.99 216.789 151.773 216.204L151.247 214.892C151.005 214.306 150.285 213.992 149.634 214.185C148.981 214.401 148.632 215.046 148.848 215.631L149.374 216.943C149.46 217.199 149.626 217.392 149.847 217.519Z" fill="#F6C002"/>
<path d="M129.205 219.518C129.445 219.761 129.768 219.893 130.099 219.911C130.43 219.929 130.743 219.832 131.011 219.641L132.276 218.657C132.814 218.251 132.862 217.521 132.384 217.036C131.93 216.553 131.116 216.508 130.578 216.914L129.313 217.898C128.799 218.327 128.751 219.058 129.205 219.518Z" fill="#F6C002"/>
<path d="M151.008 210.412C151.228 210.561 151.476 210.667 151.731 210.681C152.112 210.702 152.53 210.565 152.78 210.258C153.221 209.778 153.142 209.04 152.606 208.644L151.388 207.752C150.852 207.356 150.031 207.425 149.59 207.905C149.15 208.385 149.229 209.122 149.764 209.518L151.008 210.412Z" fill="#F6C002"/>
<path d="M138.234 213.922C137.699 213.526 136.877 213.595 136.436 214.075C135.996 214.555 136.075 215.292 136.61 215.689L137.828 216.58C138.048 216.73 138.297 216.835 138.551 216.849C138.933 216.871 139.351 216.733 139.601 216.426C140.041 215.947 139.963 215.209 139.427 214.813L138.234 213.922Z" fill="#F6C002"/>
<path d="M137.577 209.969C137.895 210.17 138.325 210.239 138.717 210.1C139.37 209.884 139.719 209.239 139.503 208.655L138.977 207.343C138.734 206.756 138.015 206.442 137.363 206.635C136.71 206.851 136.361 207.496 136.578 208.081L137.104 209.393C137.189 209.649 137.355 209.842 137.577 209.969Z" fill="#F6C002"/>
<path d="M143.782 210.769L142.516 211.753C141.978 212.159 141.93 212.889 142.409 213.374C142.648 213.616 142.971 213.749 143.302 213.767C143.633 213.785 143.946 213.688 144.214 213.496L145.479 212.512C146.017 212.107 146.066 211.376 145.587 210.892C145.108 210.407 144.294 210.362 143.782 210.769Z" fill="#F6C002"/>
<path d="M144.111 217.752C143.414 217.851 142.941 218.443 143.053 219.068L143.338 220.55C143.43 221.082 143.941 221.477 144.526 221.509C144.628 221.515 144.729 221.52 144.807 221.502C145.503 221.403 145.977 220.81 145.865 220.185L145.58 218.704C145.468 218.079 144.807 217.653 144.111 217.752Z" fill="#F6C002"/>
<path d="M132.255 213.959C132.357 213.965 132.459 213.97 132.537 213.952C133.233 213.853 133.706 213.26 133.595 212.635L133.31 211.153C133.198 210.529 132.536 210.103 131.84 210.202C131.144 210.301 130.67 210.893 130.782 211.518L131.067 213C131.184 213.556 131.695 213.928 132.255 213.959Z" fill="#F6C002"/>
<path d="M148.94 231.214C149.259 231.415 149.689 231.485 150.081 231.346C150.734 231.13 151.083 230.485 150.866 229.9L150.34 228.588C150.098 228.002 149.378 227.688 148.727 227.881C148.074 228.097 147.725 228.742 147.942 229.327L148.468 230.639C148.553 230.895 148.719 231.088 148.94 231.214Z" fill="#F6C002"/>
<path d="M128.298 233.214C128.538 233.456 128.861 233.589 129.192 233.607C129.522 233.625 129.835 233.528 130.103 233.337L131.369 232.353C131.907 231.947 131.955 231.217 131.476 230.732C131.023 230.249 130.209 230.204 129.671 230.609L128.406 231.593C127.892 232.023 127.843 232.754 128.298 233.214Z" fill="#F6C002"/>
<path d="M150.1 224.108C150.32 224.257 150.569 224.363 150.823 224.377C151.205 224.398 151.623 224.26 151.873 223.953C152.313 223.474 152.235 222.736 151.699 222.34L150.481 221.448C149.945 221.052 149.123 221.121 148.683 221.601C148.242 222.081 148.321 222.818 148.857 223.214L150.1 224.108Z" fill="#F6C002"/>
<path d="M137.327 227.618C136.791 227.222 135.97 227.291 135.529 227.771C135.089 228.251 135.168 228.988 135.703 229.384L136.921 230.276C137.141 230.426 137.39 230.531 137.644 230.545C138.026 230.566 138.444 230.429 138.694 230.122C139.134 229.642 139.055 228.905 138.52 228.509L137.327 227.618Z" fill="#F6C002"/>
<path d="M136.67 223.664C136.989 223.865 137.418 223.935 137.811 223.796C138.463 223.58 138.813 222.935 138.596 222.35L138.07 221.038C137.828 220.452 137.108 220.137 136.456 220.331C135.804 220.547 135.454 221.192 135.671 221.776L136.197 223.088C136.282 223.345 136.448 223.538 136.67 223.664Z" fill="#F6C002"/>
<path d="M142.874 224.465L141.609 225.449C141.071 225.855 141.023 226.585 141.501 227.07C141.741 227.312 142.064 227.444 142.395 227.463C142.726 227.481 143.039 227.384 143.307 227.192L144.572 226.208C145.11 225.803 145.158 225.072 144.68 224.588C144.201 224.103 143.387 224.058 142.874 224.465Z" fill="#F6C002"/>
<path d="M143.203 231.448C142.507 231.547 142.034 232.139 142.146 232.764L142.431 234.246C142.523 234.778 143.033 235.173 143.619 235.205C143.72 235.211 143.822 235.216 143.9 235.198C144.596 235.099 145.07 234.506 144.958 233.881L144.673 232.399C144.561 231.775 143.9 231.349 143.203 231.448Z" fill="#F6C002"/>
<path d="M131.348 227.655C131.45 227.661 131.552 227.666 131.63 227.648C132.326 227.548 132.799 226.956 132.687 226.331L132.402 224.849C132.29 224.225 131.629 223.799 130.933 223.898C130.237 223.997 129.763 224.589 129.875 225.214L130.16 226.696C130.277 227.252 130.788 227.624 131.348 227.655Z" fill="#F6C002"/>
<path d="M148.691 248.864C148.155 248.468 147.333 248.537 146.893 249.017C146.452 249.497 146.531 250.234 147.067 250.63L148.285 251.522C148.505 251.672 148.753 251.777 149.008 251.791C149.39 251.812 149.807 251.675 150.058 251.368C150.498 250.888 150.419 250.151 149.883 249.755L148.691 248.864Z" fill="#F6C002"/>
<path d="M148.033 244.91C148.352 245.111 148.782 245.181 149.174 245.042C149.827 244.826 150.176 244.181 149.959 243.596L149.433 242.284C149.191 241.698 148.471 241.383 147.82 241.577C147.167 241.793 146.818 242.438 147.034 243.022L147.56 244.334C147.646 244.591 147.812 244.784 148.033 244.91Z" fill="#F6C002"/>
<path d="M134.642 247.722C133.989 247.938 133.64 248.584 133.857 249.168L134.383 250.48C134.47 250.714 134.636 250.907 134.857 251.033C135.176 251.234 135.605 251.304 135.998 251.165C136.651 250.949 137 250.304 136.783 249.719L136.257 248.407C136.015 247.821 135.295 247.506 134.642 247.722Z" fill="#F6C002"/>
<path d="M127.391 246.91C127.631 247.152 127.954 247.285 128.285 247.303C128.616 247.321 128.929 247.224 129.197 247.033L130.462 246.049C131 245.643 131.048 244.912 130.57 244.428C130.116 243.945 129.302 243.9 128.764 244.305L127.499 245.289C126.985 245.719 126.937 246.45 127.391 246.91Z" fill="#F6C002"/>
<path d="M149.194 237.804C149.414 237.953 149.662 238.058 149.917 238.073C150.298 238.094 150.716 237.956 150.966 237.649C151.407 237.17 151.328 236.432 150.792 236.036L149.574 235.144C149.039 234.748 148.217 234.817 147.776 235.297C147.336 235.777 147.415 236.514 147.95 236.91L149.194 237.804Z" fill="#F6C002"/>
<path d="M136.016 243.949C136.236 244.099 136.484 244.204 136.739 244.218C137.121 244.239 137.538 244.102 137.789 243.795C138.229 243.315 138.15 242.578 137.614 242.182L136.396 241.29C135.861 240.894 135.039 240.963 134.598 241.443C134.158 241.922 134.237 242.66 134.773 243.056L136.016 243.949Z" fill="#F6C002"/>
<path d="M135.763 237.36C136.081 237.561 136.511 237.631 136.903 237.492C137.556 237.276 137.905 236.631 137.689 236.046L137.163 234.734C136.92 234.148 136.201 233.833 135.549 234.027C134.896 234.242 134.547 234.888 134.764 235.472L135.29 236.784C135.375 237.041 135.541 237.233 135.763 237.36Z" fill="#F6C002"/>
<path d="M141.967 238.161L140.701 239.145C140.164 239.551 140.115 240.281 140.594 240.766C140.833 241.008 141.157 241.14 141.488 241.159C141.818 241.177 142.131 241.08 142.399 240.888L143.665 239.904C144.203 239.499 144.251 238.768 143.772 238.283C143.294 237.799 142.479 237.754 141.967 238.161Z" fill="#F6C002"/>
<path d="M142.296 245.144C141.6 245.243 141.127 245.835 141.238 246.46L141.523 247.942C141.616 248.474 142.126 248.869 142.711 248.901C142.813 248.906 142.915 248.912 142.993 248.894C143.689 248.794 144.162 248.202 144.051 247.577L143.766 246.095C143.654 245.471 142.992 245.045 142.296 245.144Z" fill="#F6C002"/>
<path d="M130.441 241.351C130.543 241.356 130.645 241.362 130.723 241.343C131.419 241.244 131.892 240.652 131.781 240.027L131.496 238.545C131.384 237.92 130.722 237.494 130.026 237.594C129.33 237.693 128.857 238.285 128.968 238.91L129.253 240.392C129.37 240.948 129.882 241.32 130.441 241.351Z" fill="#F6C002"/>
<path d="M147.784 262.56C147.248 262.164 146.426 262.233 145.986 262.713C145.545 263.193 145.624 263.93 146.16 264.326L147.378 265.218C147.598 265.368 147.846 265.473 148.101 265.487C148.482 265.508 148.9 265.371 149.15 265.064C149.591 264.584 149.512 263.847 148.976 263.451L147.784 262.56Z" fill="#F6C002"/>
<path d="M147.126 258.606C147.445 258.807 147.874 258.877 148.267 258.738C148.919 258.522 149.269 257.877 149.052 257.292L148.526 255.98C148.284 255.394 147.564 255.079 146.913 255.273C146.26 255.489 145.91 256.134 146.127 256.718L146.653 258.03C146.738 258.287 146.904 258.48 147.126 258.606Z" fill="#F6C002"/>
<path d="M133.735 261.418C133.082 261.634 132.733 262.279 132.95 262.864L133.476 264.176C133.562 264.41 133.728 264.602 133.95 264.729C134.269 264.93 134.698 265 135.09 264.861C135.743 264.645 136.093 264 135.876 263.415L135.35 262.103C135.108 261.517 134.388 261.202 133.735 261.418Z" fill="#F6C002"/>
<path d="M127.883 258.003L126.617 258.987C126.079 259.392 126.031 260.123 126.51 260.607C126.749 260.85 127.072 260.982 127.403 261C127.734 261.018 128.047 260.921 128.315 260.73L129.581 259.746C130.118 259.34 130.167 258.61 129.688 258.125C129.209 257.64 128.395 257.596 127.883 258.003Z" fill="#F6C002"/>
<path d="M133.715 255.163C133.275 255.643 133.353 256.38 133.889 256.776L135.107 257.668C135.327 257.818 135.576 257.923 135.83 257.937C136.212 257.958 136.629 257.821 136.88 257.514C137.32 257.034 137.241 256.297 136.706 255.901L135.488 255.009C134.979 254.591 134.182 254.662 133.715 255.163Z" fill="#F6C002"/>
<path d="M142.734 253.576C143.272 253.17 143.32 252.44 142.841 251.955C142.388 251.472 141.574 251.427 141.036 251.833L139.77 252.817C139.233 253.222 139.184 253.953 139.663 254.437C139.902 254.68 140.226 254.812 140.556 254.83C140.887 254.849 141.2 254.751 141.468 254.56L142.734 253.576Z" fill="#F6C002"/>
<path d="M140.642 261.639C140.734 262.171 141.245 262.566 141.83 262.598C141.932 262.604 142.034 262.61 142.111 262.591C142.808 262.492 143.281 261.899 143.169 261.275L142.884 259.793C142.772 259.168 142.111 258.742 141.415 258.841C140.719 258.94 140.245 259.533 140.357 260.157L140.642 261.639Z" fill="#F6C002"/>
<path d="M130.873 253.723L130.588 252.241C130.477 251.616 129.815 251.19 129.119 251.289C128.423 251.388 127.949 251.981 128.061 252.606L128.346 254.088C128.439 254.62 128.949 255.014 129.534 255.047C129.636 255.052 129.738 255.058 129.816 255.039C130.537 254.942 130.985 254.348 130.873 253.723Z" fill="#F6C002"/>
<path d="M146.876 276.256C146.341 275.86 145.519 275.929 145.078 276.409C144.638 276.889 144.717 277.626 145.253 278.022L146.471 278.914C146.69 279.064 146.939 279.169 147.193 279.183C147.575 279.204 147.993 279.067 148.243 278.76C148.684 278.28 148.605 277.543 148.069 277.147L146.876 276.256Z" fill="#F6C002"/>
<path d="M146.219 272.302C146.538 272.503 146.968 272.573 147.36 272.434C148.013 272.218 148.362 271.573 148.145 270.988L147.619 269.676C147.377 269.09 146.657 268.775 146.006 268.968C145.353 269.184 145.004 269.83 145.22 270.414L145.747 271.726C145.832 271.983 145.998 272.175 146.219 272.302Z" fill="#F6C002"/>
<path d="M132.828 275.114C132.175 275.33 131.826 275.975 132.043 276.56L132.569 277.872C132.656 278.106 132.822 278.298 133.043 278.425C133.362 278.626 133.791 278.696 134.184 278.557C134.837 278.341 135.186 277.696 134.969 277.111L134.443 275.799C134.201 275.213 133.481 274.898 132.828 275.114Z" fill="#F6C002"/>
<path d="M126.975 271.698L125.71 272.682C125.172 273.088 125.124 273.819 125.602 274.303C125.842 274.545 126.165 274.678 126.496 274.696C126.827 274.714 127.14 274.617 127.408 274.426L128.673 273.442C129.211 273.036 129.259 272.306 128.781 271.821C128.302 271.336 127.488 271.291 126.975 271.698Z" fill="#F6C002"/>
<path d="M132.808 268.859C132.367 269.339 132.446 270.076 132.982 270.472L134.2 271.364C134.42 271.514 134.668 271.619 134.923 271.633C135.305 271.654 135.722 271.517 135.972 271.21C136.413 270.73 136.334 269.993 135.798 269.597L134.58 268.705C134.072 268.287 133.275 268.358 132.808 268.859Z" fill="#F6C002"/>
<path d="M141.827 267.272C142.365 266.866 142.413 266.136 141.934 265.651C141.481 265.168 140.667 265.123 140.129 265.529L138.864 266.513C138.326 266.918 138.278 267.649 138.756 268.133C138.996 268.376 139.319 268.508 139.65 268.526C139.981 268.544 140.293 268.447 140.562 268.256L141.827 267.272Z" fill="#F6C002"/>
<path d="M139.735 275.335C139.828 275.867 140.338 276.262 140.923 276.294C141.025 276.3 141.127 276.305 141.205 276.287C141.901 276.188 142.374 275.595 142.262 274.97L141.978 273.488C141.866 272.864 141.204 272.438 140.508 272.537C139.812 272.636 139.338 273.228 139.45 273.853L139.735 275.335Z" fill="#F6C002"/>
<path d="M129.966 267.419L129.681 265.937C129.569 265.312 128.908 264.886 128.212 264.985C127.516 265.084 127.042 265.677 127.154 266.302L127.439 267.784C127.531 268.316 128.042 268.71 128.627 268.743C128.729 268.748 128.83 268.754 128.908 268.735C129.63 268.638 130.078 268.044 129.966 267.419Z" fill="#F6C002"/>
<path d="M145.97 289.952C145.434 289.556 144.612 289.625 144.172 290.105C143.731 290.584 143.81 291.322 144.346 291.718L145.564 292.61C145.784 292.76 146.032 292.865 146.287 292.879C146.668 292.9 147.086 292.763 147.336 292.456C147.777 291.976 147.698 291.239 147.162 290.843L145.97 289.952Z" fill="#F6C002"/>
<path d="M145.099 282.664C144.446 282.88 144.097 283.525 144.313 284.11L144.839 285.422C144.926 285.656 145.092 285.848 145.314 285.975C145.632 286.176 146.062 286.246 146.454 286.107C147.107 285.891 147.456 285.246 147.24 284.661L146.714 283.349C146.471 282.763 145.752 282.448 145.099 282.664Z" fill="#F6C002"/>
<path d="M131.921 288.81C131.268 289.026 130.919 289.671 131.136 290.256L131.662 291.568C131.748 291.802 131.914 291.994 132.136 292.121C132.455 292.322 132.884 292.391 133.277 292.253C133.929 292.037 134.279 291.392 134.062 290.807L133.536 289.495C133.294 288.909 132.574 288.594 131.921 288.81Z" fill="#F6C002"/>
<path d="M126.068 285.394L124.803 286.378C124.265 286.784 124.216 287.514 124.695 287.999C124.935 288.241 125.258 288.374 125.589 288.392C125.919 288.41 126.232 288.313 126.5 288.121L127.766 287.138C128.304 286.732 128.352 286.001 127.873 285.517C127.395 285.032 126.58 284.987 126.068 285.394Z" fill="#F6C002"/>
<path d="M131.901 282.554C131.461 283.034 131.54 283.772 132.075 284.168L133.293 285.06C133.513 285.209 133.762 285.315 134.016 285.329C134.398 285.35 134.816 285.212 135.066 284.906C135.506 284.426 135.427 283.688 134.892 283.292L133.674 282.4C133.165 281.983 132.368 282.053 131.901 282.554Z" fill="#F6C002"/>
<path d="M140.92 280.967C141.458 280.562 141.506 279.831 141.027 279.347C140.574 278.864 139.76 278.819 139.222 279.224L137.956 280.208C137.419 280.614 137.37 281.344 137.849 281.829C138.088 282.071 138.412 282.204 138.742 282.222C139.073 282.24 139.386 282.143 139.654 281.951L140.92 280.967Z" fill="#F6C002"/>
<path d="M138.828 289.031C138.921 289.563 139.431 289.958 140.016 289.99C140.118 289.995 140.22 290.001 140.298 289.983C140.994 289.883 141.467 289.291 141.355 288.666L141.07 287.184C140.958 286.56 140.297 286.134 139.601 286.233C138.905 286.332 138.431 286.924 138.543 287.549L138.828 289.031Z" fill="#F6C002"/>
<path d="M129.059 281.115L128.774 279.633C128.663 279.008 128.001 278.582 127.305 278.681C126.609 278.78 126.135 279.373 126.247 279.997L126.532 281.479C126.625 282.011 127.135 282.406 127.72 282.438C127.822 282.444 127.924 282.45 128.002 282.431C128.723 282.333 129.171 281.74 129.059 281.115Z" fill="#F6C002"/>
<path d="M144.192 296.36C143.696 296.516 143.389 296.912 143.36 297.345C143.992 297.059 144.649 296.775 145.281 296.489C144.963 296.288 144.558 296.22 144.192 296.36Z" fill="#F6C002"/>
<path d="M126.835 300.809C127.373 300.403 127.422 299.673 126.943 299.188C126.489 298.705 125.675 298.66 125.137 299.066L123.872 300.05C123.334 300.455 123.286 301.186 123.765 301.671C124.004 301.913 124.327 302.045 124.658 302.063C124.989 302.082 125.302 301.984 125.57 301.793L126.835 300.809Z" fill="#F6C002"/>
<path d="M130.994 296.25C130.553 296.73 130.632 297.468 131.168 297.864L132.386 298.756C132.606 298.905 132.854 299.011 133.109 299.025C133.491 299.046 133.908 298.908 134.158 298.601C134.599 298.122 134.52 297.384 133.984 296.988L132.766 296.096C132.258 295.679 131.461 295.749 130.994 296.25Z" fill="#F6C002"/>
<path d="M138.339 292.944L137.074 293.928C136.536 294.334 136.487 295.065 136.966 295.549C137.206 295.791 137.529 295.924 137.86 295.942C138.19 295.96 138.503 295.863 138.771 295.672L140.037 294.688C140.575 294.282 140.623 293.552 140.144 293.067C139.666 292.582 138.851 292.537 138.339 292.944Z" fill="#F6C002"/>
<path d="M126.398 292.377C125.702 292.476 125.228 293.069 125.34 293.693L125.625 295.175C125.717 295.707 126.228 296.102 126.813 296.134C126.915 296.14 127.017 296.146 127.094 296.127C127.791 296.028 128.264 295.435 128.152 294.811L127.867 293.329C127.755 292.704 127.094 292.278 126.398 292.377Z" fill="#F6C002"/>
<path d="M105.571 190.722C105.811 190.964 106.134 191.097 106.465 191.115C106.795 191.133 107.108 191.036 107.376 190.845L108.642 189.861C108.993 189.582 109.122 189.177 109.02 188.782L106.322 188.633L105.677 189.124C105.165 189.531 105.116 190.262 105.571 190.722Z" fill="#F6C002"/>
<path d="M119.444 190.274L119.729 191.755C119.822 192.288 120.332 192.682 120.917 192.715C121.019 192.72 121.121 192.726 121.199 192.707C121.895 192.608 122.368 192.016 122.256 191.391L121.971 189.909C121.931 189.746 121.864 189.605 121.795 189.487L119.759 189.375C119.514 189.613 119.365 189.926 119.444 190.274Z" fill="#F6C002"/>
<path d="M125.306 202.419C125.625 202.619 126.054 202.689 126.447 202.55C127.1 202.334 127.449 201.689 127.232 201.104L126.706 199.792C126.464 199.206 125.744 198.892 125.093 199.085C124.44 199.301 124.091 199.946 124.307 200.531L124.833 201.843C124.919 202.099 125.085 202.292 125.306 202.419Z" fill="#F6C002"/>
<path d="M104.664 204.418C104.903 204.66 105.227 204.793 105.557 204.811C105.888 204.829 106.201 204.732 106.469 204.541L107.735 203.557C108.273 203.151 108.321 202.421 107.842 201.936C107.389 201.453 106.575 201.408 106.037 201.813L104.771 202.797C104.257 203.227 104.209 203.958 104.664 204.418Z" fill="#F6C002"/>
<path d="M126.466 195.312C126.686 195.461 126.935 195.567 127.189 195.581C127.571 195.602 127.989 195.464 128.239 195.158C128.679 194.678 128.6 193.94 128.065 193.544L126.847 192.652C126.311 192.256 125.489 192.325 125.049 192.805C124.608 193.285 124.687 194.022 125.223 194.418L126.466 195.312Z" fill="#F6C002"/>
<path d="M113.693 198.822C113.158 198.426 112.336 198.496 111.895 198.975C111.455 199.455 111.534 200.192 112.069 200.589L113.287 201.48C113.507 201.63 113.756 201.735 114.01 201.749C114.392 201.771 114.81 201.633 115.06 201.326C115.5 200.847 115.422 200.109 114.886 199.713L113.693 198.822Z" fill="#F6C002"/>
<path d="M113.036 194.868C113.354 195.069 113.784 195.139 114.176 195C114.829 194.784 115.178 194.139 114.962 193.554L114.436 192.242C114.193 191.656 113.474 191.342 112.822 191.535C112.169 191.751 111.82 192.396 112.037 192.981L112.563 194.293C112.648 194.549 112.814 194.742 113.036 194.868Z" fill="#F6C002"/>
<path d="M119.24 195.669L117.974 196.653C117.437 197.059 117.388 197.789 117.867 198.274C118.106 198.516 118.43 198.648 118.761 198.667C119.091 198.685 119.404 198.588 119.672 198.396L120.938 197.412C121.476 197.007 121.524 196.276 121.045 195.792C120.567 195.307 119.752 195.262 119.24 195.669Z" fill="#F6C002"/>
<path d="M119.57 202.652C118.873 202.751 118.4 203.343 118.512 203.968L118.797 205.45C118.889 205.982 119.4 206.377 119.985 206.409C120.087 206.415 120.188 206.42 120.266 206.402C120.962 206.302 121.436 205.71 121.324 205.085L121.039 203.603C120.927 202.979 120.266 202.553 119.57 202.652Z" fill="#F6C002"/>
<path d="M107.714 198.859C107.816 198.865 107.917 198.87 107.995 198.852C108.691 198.753 109.165 198.16 109.053 197.535L108.768 196.053C108.656 195.429 107.995 195.003 107.299 195.102C106.602 195.201 106.129 195.793 106.241 196.418L106.526 197.9C106.642 198.456 107.154 198.828 107.714 198.859Z" fill="#F6C002"/>
<path d="M124.399 216.114C124.718 216.315 125.147 216.385 125.54 216.246C126.192 216.03 126.542 215.385 126.325 214.8L125.799 213.488C125.557 212.902 124.837 212.588 124.185 212.781C123.533 212.997 123.183 213.642 123.4 214.227L123.926 215.539C124.011 215.795 124.177 215.988 124.399 216.114Z" fill="#F6C002"/>
<path d="M103.757 218.114C103.997 218.356 104.32 218.489 104.651 218.507C104.981 218.525 105.294 218.428 105.562 218.237L106.828 217.253C107.366 216.847 107.414 216.117 106.935 215.632C106.482 215.149 105.668 215.104 105.13 215.509L103.865 216.493C103.351 216.923 103.302 217.654 103.757 218.114Z" fill="#F6C002"/>
<path d="M125.559 209.008C125.779 209.157 126.028 209.263 126.282 209.277C126.664 209.298 127.082 209.16 127.332 208.853C127.772 208.374 127.694 207.636 127.158 207.24L125.94 206.348C125.404 205.952 124.582 206.021 124.142 206.501C123.701 206.981 123.78 207.718 124.316 208.114L125.559 209.008Z" fill="#F6C002"/>
<path d="M112.786 212.518C112.25 212.122 111.429 212.191 110.988 212.671C110.548 213.151 110.627 213.888 111.162 214.284L112.38 215.176C112.6 215.326 112.849 215.431 113.103 215.445C113.485 215.466 113.903 215.329 114.153 215.022C114.593 214.542 114.514 213.805 113.979 213.409L112.786 212.518Z" fill="#F6C002"/>
<path d="M112.128 208.564C112.447 208.765 112.877 208.835 113.269 208.696C113.922 208.48 114.271 207.835 114.054 207.25L113.528 205.938C113.286 205.352 112.566 205.037 111.915 205.231C111.262 205.447 110.913 206.092 111.13 206.676L111.656 207.988C111.741 208.245 111.907 208.438 112.128 208.564Z" fill="#F6C002"/>
<path d="M118.333 209.365L117.067 210.349C116.53 210.755 116.481 211.485 116.96 211.97C117.199 212.212 117.522 212.344 117.853 212.363C118.184 212.381 118.497 212.284 118.765 212.092L120.031 211.108C120.568 210.703 120.617 209.972 120.138 209.488C119.659 209.003 118.845 208.958 118.333 209.365Z" fill="#F6C002"/>
<path d="M118.662 216.348C117.966 216.447 117.493 217.039 117.605 217.664L117.89 219.146C117.982 219.678 118.492 220.072 119.078 220.105C119.179 220.11 119.281 220.116 119.359 220.097C120.055 219.998 120.529 219.406 120.417 218.781L120.132 217.299C120.02 216.674 119.359 216.249 118.662 216.348Z" fill="#F6C002"/>
<path d="M106.807 212.555C106.909 212.56 107.011 212.566 107.089 212.547C107.785 212.448 108.258 211.856 108.146 211.231L107.861 209.749C107.749 209.125 107.088 208.699 106.392 208.798C105.696 208.897 105.222 209.489 105.334 210.114L105.619 211.596C105.736 212.152 106.247 212.524 106.807 212.555Z" fill="#F6C002"/>
<path d="M123.492 229.81C123.811 230.011 124.24 230.081 124.633 229.942C125.286 229.726 125.635 229.081 125.418 228.496L124.892 227.184C124.65 226.598 123.93 226.283 123.279 226.477C122.626 226.693 122.277 227.338 122.493 227.922L123.019 229.234C123.105 229.491 123.271 229.684 123.492 229.81Z" fill="#F6C002"/>
<path d="M102.85 231.81C103.089 232.052 103.413 232.185 103.743 232.203C104.074 232.221 104.387 232.124 104.655 231.932L105.921 230.948C106.459 230.543 106.507 229.812 106.028 229.328C105.575 228.845 104.761 228.8 104.223 229.205L102.957 230.189C102.444 230.619 102.395 231.35 102.85 231.81Z" fill="#F6C002"/>
<path d="M124.652 222.704C124.872 222.853 125.121 222.958 125.375 222.973C125.757 222.994 126.175 222.856 126.425 222.549C126.865 222.07 126.786 221.332 126.251 220.936L125.033 220.044C124.497 219.648 123.675 219.717 123.235 220.197C122.794 220.677 122.873 221.414 123.409 221.81L124.652 222.704Z" fill="#F6C002"/>
<path d="M111.879 226.214C111.344 225.818 110.522 225.887 110.081 226.367C109.641 226.846 109.72 227.584 110.255 227.98L111.473 228.872C111.693 229.022 111.942 229.127 112.196 229.141C112.578 229.162 112.996 229.025 113.246 228.718C113.686 228.238 113.608 227.501 113.072 227.105L111.879 226.214Z" fill="#F6C002"/>
<path d="M111.222 222.26C111.54 222.461 111.97 222.531 112.362 222.392C113.015 222.176 113.364 221.531 113.148 220.946L112.622 219.634C112.379 219.048 111.66 218.733 111.008 218.927C110.355 219.142 110.006 219.788 110.223 220.372L110.749 221.684C110.834 221.941 111 222.133 111.222 222.26Z" fill="#F6C002"/>
<path d="M117.426 223.061L116.16 224.045C115.623 224.45 115.574 225.181 116.053 225.666C116.292 225.908 116.616 226.04 116.947 226.059C117.277 226.077 117.59 225.979 117.858 225.788L119.124 224.804C119.662 224.398 119.71 223.668 119.231 223.183C118.753 222.699 117.938 222.654 117.426 223.061Z" fill="#F6C002"/>
<path d="M117.756 230.043C117.059 230.142 116.586 230.735 116.698 231.36L116.983 232.842C117.075 233.374 117.586 233.768 118.171 233.801C118.273 233.806 118.374 233.812 118.452 233.793C119.148 233.694 119.622 233.102 119.51 232.477L119.225 230.995C119.113 230.37 118.452 229.944 117.756 230.043Z" fill="#F6C002"/>
<path d="M105.9 226.251C106.002 226.256 106.103 226.262 106.181 226.243C106.877 226.144 107.351 225.552 107.239 224.927L106.954 223.445C106.842 222.82 106.181 222.394 105.485 222.494C104.788 222.593 104.315 223.185 104.427 223.81L104.712 225.292C104.828 225.848 105.34 226.22 105.9 226.251Z" fill="#F6C002"/>
<path d="M123.243 247.46C122.707 247.064 121.885 247.133 121.445 247.613C121.004 248.092 121.083 248.83 121.619 249.226L122.837 250.118C123.057 250.268 123.305 250.373 123.56 250.387C123.941 250.408 124.359 250.271 124.609 249.964C125.05 249.484 124.971 248.747 124.435 248.351L123.243 247.46Z" fill="#F6C002"/>
<path d="M122.585 243.506C122.904 243.707 123.333 243.777 123.726 243.638C124.378 243.422 124.728 242.777 124.511 242.192L123.985 240.88C123.743 240.294 123.023 239.979 122.372 240.173C121.719 240.389 121.369 241.034 121.586 241.618L122.112 242.93C122.197 243.187 122.363 243.379 122.585 243.506Z" fill="#F6C002"/>
<path d="M102.836 245.899C103.167 245.917 103.48 245.82 103.748 245.628L105.014 244.644C105.551 244.239 105.6 243.508 105.121 243.024C104.668 242.54 103.853 242.495 103.316 242.901L102.05 243.885C101.512 244.291 101.464 245.021 101.943 245.506C102.182 245.748 102.505 245.88 102.836 245.899Z" fill="#F6C002"/>
<path d="M123.745 236.399C123.965 236.549 124.213 236.654 124.468 236.668C124.85 236.689 125.267 236.552 125.518 236.245C125.958 235.766 125.879 235.028 125.343 234.632L124.125 233.74C123.59 233.344 122.768 233.413 122.327 233.893C121.887 234.372 121.966 235.11 122.502 235.506L123.745 236.399Z" fill="#F6C002"/>
<path d="M110.972 239.91C110.436 239.514 109.615 239.583 109.174 240.063C108.734 240.542 108.813 241.28 109.348 241.676L110.566 242.568C110.786 242.717 111.035 242.823 111.289 242.837C111.671 242.858 112.089 242.721 112.339 242.414C112.779 241.934 112.7 241.197 112.165 240.8L110.972 239.91Z" fill="#F6C002"/>
<path d="M110.314 235.956C110.633 236.157 111.063 236.226 111.455 236.088C112.108 235.872 112.457 235.227 112.24 234.642L111.714 233.33C111.472 232.744 110.752 232.429 110.101 232.622C109.448 232.838 109.099 233.483 109.316 234.068L109.842 235.38C109.927 235.637 110.093 235.829 110.314 235.956Z" fill="#F6C002"/>
<path d="M116.519 236.757L115.253 237.741C114.716 238.146 114.667 238.877 115.146 239.361C115.385 239.604 115.709 239.736 116.039 239.754C116.37 239.773 116.683 239.675 116.951 239.484L118.217 238.5C118.754 238.094 118.803 237.364 118.324 236.879C117.845 236.395 117.031 236.35 116.519 236.757Z" fill="#F6C002"/>
<path d="M116.848 243.739C116.152 243.838 115.679 244.431 115.791 245.056L116.076 246.538C116.168 247.07 116.678 247.464 117.264 247.497C117.365 247.502 117.467 247.508 117.545 247.489C118.241 247.39 118.715 246.798 118.603 246.173L118.318 244.691C118.206 244.066 117.545 243.64 116.848 243.739Z" fill="#F6C002"/>
<path d="M104.577 236.189C103.881 236.288 103.408 236.881 103.52 237.506L103.805 238.988C103.897 239.52 104.407 239.914 104.993 239.947C105.094 239.952 105.196 239.958 105.274 239.939C105.97 239.84 106.444 239.248 106.332 238.623L106.047 237.141C105.935 236.516 105.274 236.09 104.577 236.189Z" fill="#F6C002"/>
<path d="M122.335 261.156C121.8 260.76 120.978 260.829 120.537 261.309C120.097 261.788 120.176 262.526 120.712 262.922L121.93 263.814C122.149 263.963 122.398 264.069 122.652 264.083C123.034 264.104 123.452 263.967 123.702 263.66C124.142 263.18 124.064 262.443 123.528 262.046L122.335 261.156Z" fill="#F6C002"/>
<path d="M121.464 253.868C120.812 254.084 120.462 254.729 120.679 255.314L121.205 256.626C121.292 256.86 121.458 257.052 121.679 257.179C121.998 257.38 122.428 257.45 122.82 257.311C123.473 257.095 123.822 256.45 123.605 255.865L123.079 254.553C122.837 253.967 122.117 253.652 121.464 253.868Z" fill="#F6C002"/>
<path d="M108.287 260.014C107.634 260.23 107.285 260.875 107.502 261.46L108.028 262.772C108.115 263.006 108.281 263.198 108.502 263.325C108.821 263.526 109.25 263.595 109.643 263.457C110.296 263.241 110.645 262.595 110.428 262.011L109.902 260.699C109.66 260.113 108.94 259.798 108.287 260.014Z" fill="#F6C002"/>
<path d="M101.929 259.595C102.26 259.613 102.573 259.515 102.841 259.324L104.107 258.34C104.645 257.934 104.693 257.204 104.214 256.719C103.761 256.236 102.947 256.191 102.409 256.597L101.143 257.581C100.606 257.987 100.557 258.717 101.036 259.202C101.275 259.444 101.599 259.576 101.929 259.595Z" fill="#F6C002"/>
<path d="M108.267 253.759C107.826 254.238 107.905 254.976 108.441 255.372L109.659 256.264C109.879 256.413 110.127 256.519 110.382 256.533C110.764 256.554 111.181 256.417 111.431 256.11C111.872 255.63 111.793 254.893 111.257 254.496L110.039 253.604C109.531 253.187 108.734 253.257 108.267 253.759Z" fill="#F6C002"/>
<path d="M109.407 249.652C109.726 249.853 110.156 249.922 110.548 249.784C111.201 249.568 111.55 248.923 111.333 248.338L110.807 247.026C110.565 246.44 109.845 246.125 109.194 246.318C108.541 246.534 108.192 247.179 108.408 247.764L108.934 249.076C109.02 249.333 109.186 249.525 109.407 249.652Z" fill="#F6C002"/>
<path d="M117.286 252.172C117.824 251.766 117.872 251.035 117.393 250.551C116.94 250.068 116.126 250.023 115.588 250.428L114.323 251.412C113.785 251.818 113.736 252.548 114.215 253.033C114.455 253.275 114.778 253.408 115.109 253.426C115.44 253.444 115.752 253.347 116.021 253.156L117.286 252.172Z" fill="#F6C002"/>
<path d="M115.194 260.235C115.286 260.767 115.796 261.162 116.382 261.194C116.484 261.2 116.585 261.205 116.663 261.187C117.359 261.088 117.833 260.495 117.721 259.87L117.436 258.388C117.324 257.764 116.663 257.338 115.967 257.437C115.27 257.536 114.797 258.128 114.909 258.753L115.194 260.235Z" fill="#F6C002"/>
<path d="M103.671 249.885C102.975 249.984 102.501 250.577 102.613 251.202L102.898 252.684C102.99 253.216 103.501 253.61 104.086 253.643C104.188 253.648 104.289 253.654 104.367 253.635C105.064 253.536 105.537 252.944 105.425 252.319L105.14 250.837C105.028 250.212 104.367 249.786 103.671 249.885Z" fill="#F6C002"/>
<path d="M121.429 274.852C120.893 274.456 120.071 274.525 119.631 275.005C119.19 275.484 119.269 276.222 119.805 276.618L121.023 277.51C121.243 277.659 121.491 277.765 121.746 277.779C122.127 277.8 122.545 277.663 122.795 277.356C123.236 276.876 123.157 276.138 122.621 275.742L121.429 274.852Z" fill="#F6C002"/>
<path d="M120.558 267.564C119.905 267.78 119.556 268.425 119.772 269.01L120.298 270.322C120.385 270.556 120.551 270.748 120.773 270.875C121.091 271.076 121.521 271.145 121.913 271.007C122.566 270.791 122.915 270.146 122.699 269.561L122.172 268.249C121.93 267.663 121.211 267.348 120.558 267.564Z" fill="#F6C002"/>
<path d="M107.38 273.71C106.727 273.926 106.378 274.571 106.595 275.156L107.121 276.468C107.207 276.702 107.373 276.894 107.595 277.021C107.914 277.222 108.343 277.291 108.735 277.152C109.388 276.936 109.738 276.291 109.521 275.707L108.995 274.395C108.753 273.809 108.033 273.494 107.38 273.71Z" fill="#F6C002"/>
<path d="M101.527 270.294L100.262 271.278C99.7238 271.684 99.6755 272.414 100.154 272.899C100.394 273.141 100.717 273.274 101.048 273.292C101.378 273.31 101.691 273.213 101.959 273.021L103.225 272.037C103.763 271.632 103.811 270.901 103.332 270.417C102.854 269.932 102.039 269.887 101.527 270.294Z" fill="#F6C002"/>
<path d="M107.36 267.455C106.92 267.934 106.998 268.672 107.534 269.068L108.752 269.96C108.972 270.109 109.221 270.215 109.475 270.229C109.857 270.25 110.275 270.113 110.525 269.806C110.965 269.326 110.886 268.588 110.351 268.192L109.133 267.3C108.624 266.883 107.827 266.953 107.36 267.455Z" fill="#F6C002"/>
<path d="M116.379 265.867C116.917 265.462 116.965 264.731 116.486 264.247C116.033 263.764 115.219 263.719 114.681 264.124L113.415 265.108C112.878 265.514 112.829 266.244 113.308 266.729C113.547 266.971 113.871 267.104 114.201 267.122C114.532 267.14 114.845 267.043 115.113 266.851L116.379 265.867Z" fill="#F6C002"/>
<path d="M114.287 273.931C114.38 274.463 114.89 274.858 115.475 274.89C115.577 274.895 115.679 274.901 115.757 274.882C116.453 274.783 116.926 274.191 116.814 273.566L116.529 272.084C116.417 271.46 115.756 271.034 115.06 271.133C114.364 271.232 113.89 271.824 114.002 272.449L114.287 273.931Z" fill="#F6C002"/>
<path d="M104.518 266.015L104.233 264.533C104.121 263.908 103.46 263.482 102.763 263.581C102.067 263.68 101.594 264.273 101.706 264.897L101.991 266.379C102.083 266.911 102.593 267.306 103.179 267.338C103.28 267.344 103.382 267.35 103.46 267.331C104.182 267.233 104.63 266.64 104.518 266.015Z" fill="#F6C002"/>
<path d="M120.521 288.548C119.986 288.151 119.164 288.221 118.723 288.7C118.283 289.18 118.362 289.918 118.898 290.314L120.116 291.206C120.336 291.355 120.584 291.461 120.838 291.475C121.22 291.496 121.638 291.358 121.888 291.051C122.329 290.572 122.25 289.834 121.714 289.438L120.521 288.548Z" fill="#F6C002"/>
<path d="M119.65 281.26C118.998 281.476 118.648 282.121 118.865 282.706L119.391 284.018C119.478 284.252 119.644 284.444 119.865 284.571C120.184 284.772 120.614 284.841 121.006 284.703C121.659 284.487 122.008 283.841 121.791 283.257L121.265 281.945C121.023 281.359 120.303 281.044 119.65 281.26Z" fill="#F6C002"/>
<path d="M106.473 287.406C105.82 287.622 105.471 288.267 105.687 288.852L106.213 290.164C106.3 290.397 106.466 290.59 106.688 290.717C107.006 290.918 107.436 290.987 107.828 290.848C108.481 290.632 108.83 289.987 108.614 289.403L108.088 288.091C107.845 287.504 107.126 287.19 106.473 287.406Z" fill="#F6C002"/>
<path d="M100.62 283.99L99.3543 284.974C98.8166 285.38 98.7682 286.11 99.247 286.595C99.4863 286.837 99.8096 286.97 100.14 286.988C100.471 287.006 100.784 286.909 101.052 286.717L102.318 285.733C102.856 285.328 102.904 284.597 102.425 284.113C101.946 283.628 101.132 283.583 100.62 283.99Z" fill="#F6C002"/>
<path d="M106.453 281.15C106.012 281.63 106.091 282.368 106.627 282.764L107.845 283.656C108.065 283.805 108.313 283.911 108.568 283.925C108.95 283.946 109.367 283.808 109.617 283.501C110.058 283.022 109.979 282.284 109.443 281.888L108.225 280.996C107.717 280.579 106.92 280.649 106.453 281.15Z" fill="#F6C002"/>
<path d="M115.472 279.563C116.009 279.158 116.058 278.427 115.579 277.943C115.126 277.459 114.311 277.414 113.774 277.82L112.508 278.804C111.97 279.21 111.922 279.94 112.401 280.425C112.64 280.667 112.963 280.8 113.294 280.818C113.625 280.836 113.938 280.739 114.206 280.547L115.472 279.563Z" fill="#F6C002"/>
<path d="M113.38 287.627C113.472 288.159 113.983 288.553 114.568 288.586C114.67 288.591 114.771 288.597 114.849 288.578C115.545 288.479 116.019 287.887 115.907 287.262L115.622 285.78C115.51 285.155 114.849 284.729 114.153 284.828C113.456 284.928 112.983 285.52 113.095 286.145L113.38 287.627Z" fill="#F6C002"/>
<path d="M103.611 279.711L103.326 278.229C103.214 277.604 102.552 277.178 101.856 277.277C101.16 277.376 100.687 277.969 100.798 278.593L101.083 280.075C101.176 280.607 101.686 281.002 102.271 281.034C102.373 281.04 102.475 281.046 102.553 281.027C103.275 280.929 103.723 280.335 103.611 279.711Z" fill="#F6C002"/>
<path d="M119.614 302.243C119.079 301.847 118.257 301.917 117.816 302.396C117.376 302.876 117.455 303.613 117.99 304.01L119.208 304.902C119.428 305.051 119.677 305.156 119.931 305.171C120.313 305.192 120.731 305.054 120.981 304.747C121.421 304.268 121.342 303.53 120.807 303.134L119.614 302.243Z" fill="#F6C002"/>
<path d="M118.743 294.956C118.09 295.172 117.741 295.817 117.958 296.402L118.484 297.714C118.571 297.948 118.737 298.14 118.958 298.267C119.277 298.468 119.706 298.537 120.099 298.398C120.752 298.183 121.101 297.537 120.884 296.953L120.358 295.641C120.116 295.055 119.396 294.74 118.743 294.956Z" fill="#F6C002"/>
<path d="M105.565 301.102C104.913 301.318 104.563 301.963 104.78 302.548L105.306 303.859C105.393 304.093 105.559 304.286 105.78 304.413C106.099 304.613 106.529 304.683 106.921 304.544C107.574 304.328 107.923 303.683 107.706 303.098L107.18 301.786C106.938 301.2 106.218 300.886 105.565 301.102Z" fill="#F6C002"/>
<path d="M99.7132 297.686L98.4476 298.67C97.9099 299.075 97.8615 299.806 98.3402 300.29C98.5796 300.533 98.9029 300.665 99.2337 300.683C99.5645 300.702 99.8774 300.604 100.146 300.413L101.411 299.429C101.949 299.023 101.997 298.293 101.518 297.808C101.04 297.324 100.225 297.279 99.7132 297.686Z" fill="#F6C002"/>
<path d="M105.546 294.846C105.105 295.326 105.184 296.063 105.72 296.46L106.938 297.352C107.158 297.501 107.406 297.607 107.661 297.621C108.042 297.642 108.46 297.504 108.71 297.197C109.151 296.718 109.072 295.98 108.536 295.584L107.318 294.692C106.809 294.275 106.013 294.345 105.546 294.846Z" fill="#F6C002"/>
<path d="M114.565 293.259C115.103 292.854 115.151 292.123 114.672 291.638C114.219 291.155 113.405 291.11 112.867 291.516L111.601 292.5C111.064 292.906 111.015 293.636 111.494 294.121C111.733 294.363 112.057 294.495 112.387 294.514C112.718 294.532 113.031 294.435 113.299 294.243L114.565 293.259Z" fill="#F6C002"/>
<path d="M112.473 301.323C112.565 301.855 113.075 302.249 113.661 302.282C113.762 302.287 113.864 302.293 113.942 302.274C114.638 302.175 115.112 301.583 115 300.958L114.715 299.476C114.603 298.851 113.942 298.425 113.245 298.524C112.549 298.623 112.076 299.216 112.188 299.841L112.473 301.323Z" fill="#F6C002"/>
<path d="M102.704 293.406L102.419 291.924C102.307 291.3 101.646 290.874 100.949 290.973C100.253 291.072 99.7799 291.664 99.8917 292.289L100.177 293.771C100.269 294.303 100.779 294.698 101.365 294.73C101.466 294.736 101.568 294.741 101.646 294.723C102.368 294.625 102.816 294.031 102.704 293.406Z" fill="#F6C002"/>
<path d="M104.988 308.287C105.27 308.256 105.555 308.203 105.839 308.15C105.561 308.112 105.253 308.141 104.988 308.287Z" fill="#F6C002"/>
<path d="M113.763 305.357C113.31 304.874 112.496 304.829 111.958 305.235L110.693 306.219C110.29 306.517 110.182 306.992 110.307 307.412C111.496 307.202 112.661 306.969 113.827 306.712C114.16 306.318 114.172 305.746 113.763 305.357Z" fill="#F6C002"/>
<path d="M100.042 304.669C99.3461 304.768 98.8726 305.36 98.9845 305.985L99.2695 307.467C99.362 307.999 99.8722 308.393 100.457 308.426C100.559 308.431 100.661 308.437 100.739 308.418C101.435 308.319 101.909 307.727 101.797 307.102L101.512 305.62C101.4 304.995 100.738 304.57 100.042 304.669Z" fill="#F6C002"/>
<path d="M83.5736 187.355L82.9883 187.322L82.9006 188.646L83.1702 188.432C83.5461 188.155 83.6751 187.75 83.5736 187.355Z" fill="#F6C002"/>
<path d="M93.996 188.869L94.281 190.351C94.3734 190.883 94.8837 191.278 95.469 191.31C95.5708 191.316 95.6726 191.321 95.7504 191.303C96.4466 191.204 96.92 190.611 96.8081 189.987L96.5232 188.505C96.4829 188.342 96.4156 188.201 96.3468 188.083L94.3109 187.97C94.0653 188.209 93.9169 188.521 93.996 188.869Z" fill="#F6C002"/>
<path d="M99.8579 201.014C100.177 201.215 100.606 201.285 100.999 201.146C101.651 200.93 102.001 200.285 101.784 199.7L101.258 198.388C101.016 197.802 100.296 197.487 99.6445 197.68C98.9916 197.896 98.6424 198.542 98.8591 199.126L99.3852 200.438C99.4703 200.695 99.6364 200.887 99.8579 201.014Z" fill="#F6C002"/>
<path d="M82.3943 200.532C82.3225 200.459 82.2238 200.408 82.125 200.356L81.992 202.365L82.2616 202.151C82.8262 201.724 82.8746 200.993 82.3943 200.532Z" fill="#F6C002"/>
<path d="M101.018 193.907C101.238 194.057 101.487 194.162 101.741 194.176C102.123 194.197 102.541 194.06 102.791 193.753C103.231 193.273 103.153 192.536 102.617 192.14L101.399 191.248C100.863 190.852 100.041 190.921 99.6009 191.401C99.1605 191.88 99.2393 192.618 99.775 193.014L101.018 193.907Z" fill="#F6C002"/>
<path d="M88.2451 197.418C87.7094 197.022 86.8875 197.091 86.4471 197.571C86.0066 198.05 86.0855 198.788 86.6212 199.184L87.8392 200.076C88.0591 200.226 88.3076 200.331 88.5621 200.345C88.9438 200.366 89.3615 200.229 89.6117 199.922C90.0522 199.442 89.9733 198.705 89.4376 198.309L88.2451 197.418Z" fill="#F6C002"/>
<path d="M87.5874 193.464C87.9061 193.665 88.3357 193.735 88.728 193.596C89.3808 193.38 89.7301 192.735 89.5134 192.15L88.9873 190.838C88.7451 190.252 88.0253 189.937 87.374 190.131C86.7211 190.347 86.3719 190.992 86.5886 191.576L87.1147 192.888C87.1998 193.145 87.3659 193.337 87.5874 193.464Z" fill="#F6C002"/>
<path d="M93.7923 194.265L92.5267 195.249C91.989 195.654 91.9406 196.385 92.4193 196.869C92.6587 197.112 92.982 197.244 93.3128 197.262C93.6436 197.281 93.9565 197.183 94.2246 196.992L95.4902 196.008C96.0279 195.602 96.0763 194.872 95.5976 194.387C95.1188 193.903 94.3045 193.858 93.7923 194.265Z" fill="#F6C002"/>
<path d="M94.1214 201.248C93.4252 201.347 92.9517 201.939 93.0636 202.564L93.3486 204.046C93.4411 204.578 93.9513 204.972 94.5366 205.005C94.6384 205.01 94.7402 205.016 94.818 204.997C95.5142 204.898 95.9876 204.306 95.8758 203.681L95.5908 202.199C95.479 201.574 94.8175 201.148 94.1214 201.248Z" fill="#F6C002"/>
<path d="M82.3426 197.459C82.4189 197.463 82.4953 197.467 82.5732 197.449C83.2693 197.35 83.7427 196.757 83.6309 196.132L83.3459 194.65C83.2698 194.257 82.9571 193.965 82.5845 193.807L82.3426 197.459Z" fill="#F6C002"/>
<path d="M98.7374 211.376C98.0845 211.592 97.7353 212.238 97.952 212.822L98.4781 214.134C98.5647 214.368 98.7308 214.561 98.9523 214.687C99.271 214.888 99.7006 214.958 100.093 214.819C100.746 214.603 101.095 213.958 100.878 213.373L100.352 212.061C100.11 211.475 99.3902 211.16 98.7374 211.376Z" fill="#F6C002"/>
<path d="M81.4871 214.227C81.4153 214.155 81.3165 214.103 81.2178 214.052L81.0847 216.061L81.3544 215.847C81.919 215.42 81.9674 214.689 81.4871 214.227Z" fill="#F6C002"/>
<path d="M100.111 207.603C100.331 207.753 100.58 207.858 100.834 207.872C101.216 207.893 101.634 207.756 101.884 207.449C102.324 206.969 102.245 206.232 101.71 205.836L100.492 204.944C99.956 204.548 99.1341 204.617 98.6937 205.097C98.2532 205.576 98.3321 206.314 98.8678 206.71L100.111 207.603Z" fill="#F6C002"/>
<path d="M85.5397 211.267C85.0993 211.746 85.1782 212.484 85.7138 212.88L86.9318 213.772C87.1518 213.922 87.4003 214.027 87.6547 214.041C88.0365 214.062 88.4542 213.925 88.7044 213.618C89.1448 213.138 89.066 212.401 88.5303 212.005L87.3123 211.113C86.8036 210.695 86.0071 210.766 85.5397 211.267Z" fill="#F6C002"/>
<path d="M86.6802 207.16C86.9989 207.361 87.4285 207.43 87.8208 207.292C88.4736 207.076 88.8228 206.43 88.6062 205.846L88.08 204.534C87.8379 203.948 87.1181 203.633 86.4667 203.826C85.8139 204.042 85.4647 204.687 85.6814 205.272L86.2074 206.584C86.2926 206.841 86.4587 207.033 86.6802 207.16Z" fill="#F6C002"/>
<path d="M94.5591 209.679C95.0968 209.274 95.1451 208.543 94.6664 208.059C94.2131 207.576 93.3988 207.531 92.8611 207.936L91.5955 208.92C91.0578 209.326 91.0094 210.056 91.4882 210.541C91.7275 210.783 92.0508 210.916 92.3816 210.934C92.7125 210.952 93.0254 210.855 93.2935 210.663L94.5591 209.679Z" fill="#F6C002"/>
<path d="M92.4667 217.743C92.5592 218.275 93.0694 218.67 93.6547 218.702C93.7565 218.708 93.8583 218.713 93.9362 218.695C94.6324 218.596 95.1058 218.003 94.9939 217.379L94.7089 215.897C94.5971 215.272 93.9357 214.846 93.2395 214.945C92.5433 215.044 92.0699 215.636 92.1818 216.261L92.4667 217.743Z" fill="#F6C002"/>
<path d="M81.4354 211.155C81.5117 211.159 81.5881 211.163 81.6659 211.144C82.3621 211.045 82.8355 210.453 82.7236 209.828L82.4387 208.346C82.3626 207.953 82.0499 207.66 81.6772 207.502L81.4354 211.155Z" fill="#F6C002"/>
<path d="M97.8301 225.072C97.1773 225.288 96.8281 225.933 97.0448 226.518L97.5708 227.83C97.6575 228.064 97.8236 228.256 98.0451 228.383C98.3638 228.584 98.7934 228.654 99.1857 228.515C99.8385 228.299 100.188 227.654 99.9711 227.069L99.445 225.757C99.2028 225.171 98.483 224.856 97.8301 225.072Z" fill="#F6C002"/>
<path d="M80.5799 227.923C80.5081 227.851 80.4093 227.799 80.3105 227.748L80.1775 229.757L80.4471 229.543C81.0118 229.116 81.0601 228.385 80.5799 227.923Z" fill="#F6C002"/>
<path d="M99.204 221.299C99.4239 221.449 99.6724 221.554 99.9269 221.568C100.309 221.589 100.726 221.452 100.977 221.145C101.417 220.665 101.338 219.928 100.802 219.532L99.5844 218.64C99.0488 218.244 98.2269 218.313 97.7864 218.793C97.346 219.272 97.4249 220.01 97.9605 220.406L99.204 221.299Z" fill="#F6C002"/>
<path d="M84.6325 224.963C84.1921 225.442 84.2709 226.18 84.8066 226.576L86.0246 227.468C86.2446 227.618 86.493 227.723 86.7475 227.737C87.1292 227.758 87.547 227.621 87.7972 227.314C88.2376 226.834 88.1587 226.097 87.6231 225.7L86.4051 224.808C85.8964 224.391 85.0999 224.462 84.6325 224.963Z" fill="#F6C002"/>
<path d="M85.7734 220.856C86.0921 221.057 86.5217 221.126 86.914 220.987C87.5669 220.771 87.9161 220.126 87.6994 219.542L87.1733 218.23C86.9312 217.644 86.2113 217.329 85.56 217.522C84.9072 217.738 84.5579 218.383 84.7746 218.968L85.3007 220.28C85.3859 220.537 85.5519 220.729 85.7734 220.856Z" fill="#F6C002"/>
<path d="M93.6518 223.375C94.1895 222.97 94.2379 222.239 93.7592 221.755C93.3059 221.271 92.4915 221.227 91.9539 221.632L90.6883 222.616C90.1506 223.022 90.1022 223.752 90.5809 224.237C90.8203 224.479 91.1436 224.612 91.4744 224.63C91.8052 224.648 92.1181 224.551 92.3862 224.359L93.6518 223.375Z" fill="#F6C002"/>
<path d="M91.56 231.439C91.6525 231.971 92.1627 232.365 92.748 232.398C92.8498 232.403 92.9516 232.409 93.0295 232.39C93.7256 232.291 94.199 231.699 94.0872 231.074L93.8022 229.592C93.6903 228.967 93.0289 228.541 92.3328 228.641C91.6366 228.74 91.1632 229.332 91.275 229.957L91.56 231.439Z" fill="#F6C002"/>
<path d="M80.5281 224.851C80.6045 224.855 80.6809 224.859 80.7587 224.84C81.4549 224.741 81.9283 224.149 81.8164 223.524L81.5315 222.042C81.4554 221.649 81.1427 221.356 80.77 221.198L80.5281 224.851Z" fill="#F6C002"/>
<path d="M96.9234 238.768C96.2706 238.984 95.9213 239.629 96.138 240.214L96.6641 241.526C96.7508 241.76 96.9168 241.952 97.1383 242.079C97.4571 242.28 97.8866 242.349 98.2789 242.211C98.9318 241.995 99.281 241.35 99.0643 240.765L98.5382 239.453C98.2961 238.867 97.5762 238.552 96.9234 238.768Z" fill="#F6C002"/>
<path d="M79.6732 241.619C79.6013 241.546 79.5026 241.495 79.4038 241.444L79.2708 243.453L79.5404 243.238C80.105 242.811 80.1534 242.081 79.6732 241.619Z" fill="#F6C002"/>
<path d="M98.2972 234.995C98.5172 235.145 98.7656 235.25 99.0201 235.264C99.4018 235.285 99.8196 235.148 100.07 234.841C100.51 234.361 100.431 233.624 99.8957 233.228L98.6777 232.336C98.142 231.939 97.3201 232.009 96.8797 232.488C96.4393 232.968 96.5181 233.706 97.0538 234.102L98.2972 234.995Z" fill="#F6C002"/>
<path d="M83.7258 238.659C83.2853 239.138 83.3642 239.876 83.8999 240.272L85.1179 241.164C85.3378 241.313 85.5863 241.419 85.8408 241.433C86.2225 241.454 86.6402 241.317 86.8904 241.01C87.3309 240.53 87.252 239.792 86.7163 239.396L85.4983 238.504C84.9896 238.087 84.1932 238.157 83.7258 238.659Z" fill="#F6C002"/>
<path d="M84.8662 234.552C85.1849 234.753 85.6145 234.822 86.0068 234.683C86.6597 234.467 87.0089 233.822 86.7922 233.238L86.2661 231.926C86.0239 231.339 85.3041 231.025 84.6528 231.218C83.9999 231.434 83.6507 232.079 83.8674 232.664L84.3935 233.976C84.4786 234.232 84.6447 234.425 84.8662 234.552Z" fill="#F6C002"/>
<path d="M92.7451 237.071C93.2828 236.666 93.3312 235.935 92.8524 235.451C92.3992 234.967 91.5848 234.922 91.0471 235.328L89.7815 236.312C89.2439 236.718 89.1955 237.448 89.6742 237.933C89.9136 238.175 90.2368 238.307 90.5677 238.326C90.8985 238.344 91.2114 238.247 91.4795 238.055L92.7451 237.071Z" fill="#F6C002"/>
<path d="M90.6528 245.135C90.7452 245.667 91.2555 246.061 91.8408 246.094C91.9426 246.099 92.0444 246.105 92.1222 246.086C92.8184 245.987 93.2918 245.395 93.1799 244.77L92.895 243.288C92.7831 242.663 92.1217 242.237 91.4255 242.336C90.7294 242.435 90.2559 243.028 90.3678 243.653L90.6528 245.135Z" fill="#F6C002"/>
<path d="M79.6209 238.546C79.6973 238.551 79.7736 238.555 79.8515 238.536C80.5477 238.437 81.0211 237.845 80.9092 237.22L80.6242 235.738C80.5481 235.344 80.2354 235.052 79.8628 234.894L79.6209 238.546Z" fill="#F6C002"/>
<path d="M96.0162 252.464C95.3633 252.68 95.0141 253.325 95.2308 253.91L95.7569 255.222C95.8435 255.456 96.0096 255.648 96.2311 255.775C96.5498 255.976 96.9794 256.045 97.3717 255.907C98.0246 255.691 98.3738 255.046 98.1571 254.461L97.631 253.149C97.3889 252.563 96.669 252.248 96.0162 252.464Z" fill="#F6C002"/>
<path d="M78.7659 255.315C78.6941 255.242 78.5954 255.191 78.4966 255.14L78.3635 257.149L78.6332 256.934C79.1978 256.507 79.2462 255.777 78.7659 255.315Z" fill="#F6C002"/>
<path d="M97.39 248.691C97.61 248.841 97.8584 248.946 98.1129 248.96C98.4946 248.981 98.9124 248.844 99.1626 248.537C99.603 248.057 99.5241 247.32 98.9885 246.923L97.7705 246.031C97.2348 245.635 96.4129 245.705 95.9725 246.184C95.532 246.664 95.6109 247.401 96.1466 247.798L97.39 248.691Z" fill="#F6C002"/>
<path d="M82.8186 252.354C82.3781 252.834 82.457 253.572 82.9927 253.968L84.2106 254.86C84.4306 255.009 84.6791 255.115 84.9335 255.129C85.3153 255.15 85.733 255.012 85.9832 254.706C86.4236 254.226 86.3448 253.488 85.8091 253.092L84.5911 252.2C84.0824 251.783 83.2859 251.853 82.8186 252.354Z" fill="#F6C002"/>
<path d="M83.959 248.248C84.2777 248.448 84.7073 248.518 85.0996 248.379C85.7524 248.163 86.1017 247.518 85.885 246.933L85.3589 245.621C85.1167 245.035 84.3969 244.721 83.7456 244.914C83.0927 245.13 82.7435 245.775 82.9602 246.36L83.4863 247.672C83.5714 247.928 83.7375 248.121 83.959 248.248Z" fill="#F6C002"/>
<path d="M91.8379 250.767C92.3756 250.362 92.4239 249.631 91.9452 249.146C91.4919 248.663 90.6776 248.618 90.1399 249.024L88.8743 250.008C88.3366 250.414 88.2883 251.144 88.767 251.629C89.0063 251.871 89.3296 252.003 89.6604 252.022C89.9913 252.04 90.3042 251.943 90.5723 251.751L91.8379 250.767Z" fill="#F6C002"/>
<path d="M89.746 258.83C89.8385 259.363 90.3487 259.757 90.934 259.79C91.0358 259.795 91.1376 259.801 91.2155 259.782C91.9117 259.683 92.3851 259.091 92.2732 258.466L91.9882 256.984C91.8764 256.359 91.215 255.933 90.5188 256.032C89.8226 256.131 89.3492 256.724 89.4611 257.349L89.746 258.83Z" fill="#F6C002"/>
<path d="M78.7142 252.242C78.7905 252.247 78.8669 252.251 78.9447 252.232C79.6409 252.133 80.1143 251.541 80.0025 250.916L79.7175 249.434C79.6414 249.04 79.3287 248.748 78.9561 248.59L78.7142 252.242Z" fill="#F6C002"/>
<path d="M95.109 266.16C94.4561 266.376 94.1069 267.021 94.3236 267.606L94.8496 268.918C94.9363 269.152 95.1024 269.344 95.3239 269.471C95.6426 269.672 96.0722 269.741 96.4645 269.603C97.1173 269.387 97.4666 268.741 97.2499 268.157L96.7238 266.845C96.4816 266.259 95.7618 265.944 95.109 266.16Z" fill="#F6C002"/>
<path d="M77.8587 269.011C77.7869 268.938 77.6881 268.887 77.5894 268.836L77.4563 270.844L77.7259 270.63C78.2906 270.203 78.3389 269.473 77.8587 269.011Z" fill="#F6C002"/>
<path d="M96.4828 262.387C96.7027 262.536 96.9512 262.642 97.2057 262.656C97.5874 262.677 98.0051 262.54 98.2553 262.233C98.6958 261.753 98.6169 261.015 98.0812 260.619L96.8632 259.727C96.3276 259.331 95.5057 259.4 95.0652 259.88C94.6248 260.36 94.7037 261.097 95.2394 261.493L96.4828 262.387Z" fill="#F6C002"/>
<path d="M81.9118 266.05C81.4714 266.53 81.5502 267.267 82.0859 267.663L83.3039 268.555C83.5239 268.705 83.7723 268.81 84.0268 268.824C84.4085 268.845 84.8263 268.708 85.0765 268.401C85.5169 267.921 85.438 267.184 84.9024 266.788L83.6844 265.896C83.1757 265.478 82.3792 265.549 81.9118 266.05Z" fill="#F6C002"/>
<path d="M83.0522 261.943C83.371 262.144 83.8005 262.214 84.1928 262.075C84.8457 261.859 85.1949 261.214 84.9782 260.629L84.4521 259.317C84.21 258.731 83.4901 258.417 82.8388 258.61C82.186 258.826 81.8368 259.471 82.0534 260.056L82.5795 261.368C82.6647 261.624 82.8307 261.817 83.0522 261.943Z" fill="#F6C002"/>
<path d="M90.9307 264.463C91.4683 264.057 91.5167 263.327 91.038 262.842C90.5847 262.359 89.7704 262.314 89.2327 262.72L87.9671 263.704C87.4294 264.109 87.381 264.84 87.8598 265.325C88.0991 265.567 88.4224 265.699 88.7532 265.717C89.084 265.736 89.397 265.638 89.665 265.447L90.9307 264.463Z" fill="#F6C002"/>
<path d="M88.8388 272.526C88.9313 273.058 89.4415 273.453 90.0268 273.485C90.1286 273.491 90.2304 273.497 90.3083 273.478C91.0044 273.379 91.4778 272.787 91.366 272.162L91.081 270.68C90.9691 270.055 90.3077 269.629 89.6116 269.728C88.9154 269.827 88.442 270.42 88.5538 271.044L88.8388 272.526Z" fill="#F6C002"/>
<path d="M77.8069 265.938C77.8833 265.942 77.9597 265.947 78.0375 265.928C78.7337 265.829 79.2071 265.237 79.0952 264.612L78.8103 263.13C78.7342 262.736 78.4215 262.444 78.0488 262.286L77.8069 265.938Z" fill="#F6C002"/>
<path d="M95.0732 287.143C94.5376 286.747 93.7156 286.816 93.2752 287.296C92.8348 287.776 92.9136 288.513 93.4493 288.909L94.6673 289.801C94.8873 289.951 95.1357 290.056 95.3902 290.07C95.7719 290.091 96.1897 289.954 96.4399 289.647C96.8803 289.167 96.8014 288.43 96.2658 288.034L95.0732 287.143Z" fill="#F6C002"/>
<path d="M94.2022 279.856C93.5494 280.072 93.2001 280.717 93.4168 281.302L93.9429 282.614C94.0296 282.848 94.1957 283.04 94.4171 283.167C94.7359 283.368 95.1655 283.437 95.5578 283.298C96.2106 283.082 96.5598 282.437 96.3431 281.853L95.817 280.541C95.5749 279.955 94.855 279.64 94.2022 279.856Z" fill="#F6C002"/>
<path d="M76.952 282.707C76.8802 282.634 76.7814 282.583 76.6826 282.532L76.5496 284.54L76.8192 284.326C77.3838 283.899 77.4322 283.169 76.952 282.707Z" fill="#F6C002"/>
<path d="M95.576 276.083C95.796 276.232 96.0445 276.338 96.2989 276.352C96.6807 276.373 97.0984 276.235 97.3486 275.929C97.789 275.449 97.7102 274.711 97.1745 274.315L95.9565 273.423C95.4208 273.027 94.5989 273.096 94.1585 273.576C93.7181 274.056 93.7969 274.793 94.3326 275.189L95.576 276.083Z" fill="#F6C002"/>
<path d="M81.0046 279.746C80.5642 280.226 80.643 280.963 81.1787 281.359L82.3967 282.251C82.6166 282.401 82.8651 282.506 83.1196 282.52C83.5013 282.541 83.919 282.404 84.1692 282.097C84.6097 281.617 84.5308 280.88 83.9951 280.484L82.7771 279.592C82.2684 279.174 81.472 279.245 81.0046 279.746Z" fill="#F6C002"/>
<path d="M82.145 275.639C82.4637 275.84 82.8933 275.91 83.2856 275.771C83.9385 275.555 84.2877 274.91 84.071 274.325L83.5449 273.013C83.3028 272.427 82.5829 272.112 81.9316 272.306C81.2788 272.522 80.9295 273.167 81.1462 273.751L81.6723 275.063C81.7574 275.32 81.9235 275.513 82.145 275.639Z" fill="#F6C002"/>
<path d="M90.0239 278.159C90.5616 277.753 90.61 277.023 90.1313 276.538C89.678 276.055 88.8636 276.01 88.3259 276.416L87.0604 277.4C86.5227 277.805 86.4743 278.536 86.953 279.02C87.1924 279.263 87.5157 279.395 87.8465 279.413C88.1773 279.432 88.4902 279.334 88.7583 279.143L90.0239 278.159Z" fill="#F6C002"/>
<path d="M87.9316 286.222C88.024 286.754 88.5343 287.149 89.1196 287.181C89.2214 287.187 89.3232 287.193 89.401 287.174C90.0972 287.075 90.5706 286.482 90.4587 285.858L90.1738 284.376C90.0619 283.751 89.4005 283.325 88.7043 283.424C88.0082 283.523 87.5347 284.116 87.6466 284.74L87.9316 286.222Z" fill="#F6C002"/>
<path d="M76.8997 279.634C76.9761 279.638 77.0524 279.643 77.1303 279.624C77.8265 279.525 78.2999 278.932 78.188 278.308L77.903 276.826C77.827 276.432 77.5143 276.14 77.1416 275.982L76.8997 279.634Z" fill="#F6C002"/>
<path d="M94.1665 300.839C93.6308 300.443 92.8089 300.512 92.3685 300.992C91.928 301.472 92.0069 302.209 92.5426 302.605L93.7606 303.497C93.9805 303.647 94.229 303.752 94.4835 303.766C94.8652 303.787 95.2829 303.65 95.5331 303.343C95.9736 302.863 95.8947 302.126 95.359 301.73L94.1665 300.839Z" fill="#F6C002"/>
<path d="M93.295 293.552C92.6422 293.768 92.2929 294.413 92.5096 294.998L93.0357 296.31C93.1224 296.543 93.2884 296.736 93.5099 296.863C93.8286 297.063 94.2582 297.133 94.6505 296.994C95.3034 296.778 95.6526 296.133 95.4359 295.548L94.9098 294.237C94.6677 293.65 93.9478 293.336 93.295 293.552Z" fill="#F6C002"/>
<path d="M80.1173 299.697C79.4644 299.913 79.1152 300.559 79.3319 301.143L79.8579 302.455C79.9446 302.689 80.1107 302.882 80.3322 303.008C80.6509 303.209 81.0805 303.279 81.4728 303.14C82.1256 302.924 82.4749 302.279 82.2582 301.694L81.7321 300.382C81.4899 299.796 80.7701 299.481 80.1173 299.697Z" fill="#F6C002"/>
<path d="M76.0447 296.403C75.9729 296.33 75.8742 296.279 75.7754 296.228L75.6424 298.236L75.912 298.022C76.4766 297.595 76.525 296.865 76.0447 296.403Z" fill="#F6C002"/>
<path d="M80.0974 293.442C79.6569 293.922 79.7358 294.659 80.2715 295.055L81.4895 295.947C81.7094 296.097 81.9579 296.202 82.2124 296.216C82.5941 296.237 83.0118 296.1 83.262 295.793C83.7024 295.313 83.6236 294.576 83.0879 294.18L81.8699 293.288C81.3612 292.87 80.5647 292.941 80.0974 293.442Z" fill="#F6C002"/>
<path d="M81.2378 289.335C81.5565 289.536 81.9861 289.606 82.3784 289.467C83.0312 289.251 83.3805 288.606 83.1638 288.021L82.6377 286.709C82.3955 286.123 81.6757 285.808 81.0244 286.001C80.3715 286.217 80.0223 286.863 80.239 287.447L80.7651 288.759C80.8502 289.016 81.0163 289.208 81.2378 289.335Z" fill="#F6C002"/>
<path d="M89.1167 291.855C89.6544 291.449 89.7028 290.719 89.224 290.234C88.7707 289.751 87.9564 289.706 87.4187 290.112L86.1531 291.096C85.6154 291.501 85.5671 292.232 86.0458 292.716C86.2852 292.959 86.6084 293.091 86.9393 293.109C87.2701 293.128 87.583 293.03 87.8511 292.839L89.1167 291.855Z" fill="#F6C002"/>
<path d="M87.0243 299.918C87.1168 300.45 87.6271 300.845 88.2124 300.877C88.3142 300.883 88.416 300.888 88.4938 300.87C89.19 300.771 89.6634 300.178 89.5515 299.554L89.2666 298.072C89.1547 297.447 88.4933 297.021 87.7971 297.12C87.1009 297.219 86.6275 297.811 86.7394 298.436L87.0243 299.918Z" fill="#F6C002"/>
<path d="M75.993 293.33C76.0693 293.334 76.1457 293.338 76.2236 293.32C76.9197 293.221 77.3931 292.628 77.2813 292.004L76.9963 290.522C76.9202 290.128 76.6075 289.836 76.2349 289.678L75.993 293.33Z" fill="#F6C002"/>
<path d="M94.0029 307.932C93.7608 307.346 93.0409 307.032 92.3896 307.225C91.7368 307.441 91.3875 308.086 91.6042 308.67L91.9555 309.538C92.8268 309.494 93.698 309.45 94.5708 309.384C94.5484 309.337 94.5784 309.27 94.556 309.223L94.0029 307.932Z" fill="#F6C002"/>
<path d="M82.2063 307.877L80.9883 306.985C80.4526 306.589 79.6307 306.658 79.1902 307.138C78.7498 307.618 78.8287 308.355 79.3644 308.751L80.5823 309.643C80.7275 309.766 80.9296 309.8 81.1062 309.832C81.2843 309.842 81.4879 309.853 81.6676 309.84C81.9266 309.786 82.1886 309.686 82.3549 309.489C82.8223 308.988 82.7419 308.273 82.2063 307.877Z" fill="#F6C002"/>
<path d="M86.5354 303.832L85.2698 304.816C84.7321 305.221 84.6838 305.952 85.1625 306.437C85.4019 306.679 85.7251 306.811 86.056 306.829C86.3868 306.848 86.6997 306.75 86.9678 306.559L88.2334 305.575C88.7711 305.169 88.8195 304.439 88.3407 303.954C87.862 303.47 87.0477 303.425 86.5354 303.832Z" fill="#F6C002"/>
<path d="M75.0858 307.026C75.1621 307.03 75.2385 307.034 75.3163 307.016C76.0125 306.917 76.4859 306.324 76.374 305.699L76.0891 304.218C76.013 303.824 75.7003 303.532 75.3276 303.374L75.0858 307.026Z" fill="#F6C002"/>
</g>
</svg>
